<svg width="421" height="35" viewBox="0 0 421 49" fill="none" xmlns="http://www.w3.org/2000/svg">
<path d="M48.5675 47.4517L41.3425 34.2762H14.4189L7.2263 47.4517H0.260498L25.5318 1.25683L30.2621 1.25683L55.5334 47.4517H48.5675ZM27.8969 9.63246L17.3348 28.9286H38.4266L27.8969 9.63246Z" fill="#FEFEFF"/>
<path d="M69.3289 24.3543C69.3289 34.6627 76.3919 42.7484 91.2307 42.7484C97.2569 42.7484 102.02 41.7176 104.676 39.7848V27.2213H91.2307V21.1973H111.124V42.4263C106.944 46.292 100.335 48.096 91.2307 48.096C72.7308 48.096 62.4279 37.9486 62.4279 24.3543C62.4279 10.76 72.7308 0.612548 91.2307 0.612549C105.162 0.612549 110.379 5.86343 110.379 5.86343L107.203 10.2123C107.203 10.2123 101.598 5.96007 91.2307 5.96007C76.3919 5.96007 69.3289 14.0458 69.3289 24.3543Z" fill="#FEFEFF"/>
<path d="M132.015 47.4517H125.567V1.25683L154.143 1.25683C164.835 1.25683 170.084 6.92649 170.084 14.9156C170.084 22.5825 164.965 26.8025 158.582 28.0589L170.148 47.4517H163.118L151.875 28.5743H132.015V47.4517ZM154.143 6.60435L132.015 6.60435V23.2268H154.143C160.591 23.2268 163.312 19.5866 163.312 14.9156C163.312 9.60025 160.591 6.60435 154.143 6.60435Z" fill="#FEFEFF"/>
<path d="M229.303 47.4517L222.078 34.2762L195.154 34.2762L187.961 47.4517H180.996L206.267 1.25683L210.997 1.25683L236.268 47.4517H229.303ZM208.632 9.63247L198.07 28.9286L219.162 28.9286L208.632 9.63247Z" fill="#FEFEFF"/>
<path d="M254.859 47.4517H248.412V1.25683L276.988 1.25683C287.679 1.25683 292.928 6.92649 292.928 14.9156C292.928 22.5825 287.809 26.8025 281.426 28.0589L292.993 47.4517H285.962L274.72 28.5743H254.859V47.4517ZM276.988 6.60435L254.859 6.60435V23.2268H276.988C283.435 23.2268 286.157 19.5866 286.157 14.9156C286.157 9.60025 283.435 6.60435 276.988 6.60435Z" fill="#FEFEFF"/>
<path d="M306.756 47.4517V1.25683L314.143 1.25683L346.25 39.2049V1.25683L352.698 1.25683V47.4517H345.311L313.203 9.50361V47.4517H306.756Z" fill="#FEFEFF"/>
<path d="M413.148 47.4517L405.923 34.2762H378.999L371.807 47.4517H364.841L390.112 1.25683L394.843 1.25683L420.114 47.4517H413.148ZM392.477 9.63247L381.915 28.9286H403.007L392.477 9.63247Z" fill="#FEFEFF"/>
</svg>
