<svg width="103" height="66" viewBox="0 0 103 66" fill="none" xmlns="http://www.w3.org/2000/svg">
<g id="ar school">
<g id="Mask group">
<mask id="mask0_169_10465" style="mask-type:alpha" maskUnits="userSpaceOnUse" x="0" y="0" width="52" height="48">
<g id="Group">
<path id="Vector" d="M39.997 24.8256L28.4492 1.82583C27.3976 -0.268765 24.4069 -0.268765 23.3552 1.82583L11.8125 24.8157L0.293213 47.7584H23.2421V35.2163C23.2421 33.7358 24.4292 32.5362 25.9023 32.5063C27.3764 32.5362 28.5623 33.7358 28.5623 35.2163V47.7584H51.5112L39.997 24.8256Z" fill="#212121"/>
</g>
</mask>
<g mask="url(#mask0_169_10465)">
<g id="Group_2">
<path id="Vector_2" d="M13.0295 39.5723C13.2544 39.7222 13.447 39.8849 13.6304 40.0819C13.757 40.2175 14.025 40.1691 14.2445 39.9707C15.0368 39.2558 15.8296 38.5404 16.6196 37.8205C17.4777 38.6334 18.3532 39.4291 19.2529 40.2032C19.4944 40.4104 19.7826 40.4415 19.8942 40.2746C20.0441 40.0497 20.2064 39.8567 20.4036 39.6728C20.539 39.5468 20.491 39.2792 20.2926 39.0597C19.5347 38.22 18.7758 37.3802 18.0129 36.5434C17.7966 36.3062 17.5798 36.0693 17.3626 35.8326C16.9828 35.4187 16.3324 35.4099 15.9436 35.8152C15.7188 36.0495 15.4952 36.2851 15.2728 36.5218C14.5331 37.3075 13.8077 38.1092 13.101 38.931C12.8932 39.1721 12.8623 39.4611 13.0295 39.5723Z" fill="#340065"/>
<path id="Vector_3" d="M13.8675 35.7708C13.6546 35.9709 13.468 36.199 13.2622 36.4066C13.0562 36.6142 12.8369 36.8096 12.6478 37.0331C12.5605 37.1362 12.6768 37.327 12.8037 37.2352C13.0376 37.0661 13.249 36.8687 13.4672 36.6804C13.7021 36.4781 13.9586 36.2996 14.1876 36.0908C14.4027 35.8946 14.0799 35.571 13.8675 35.7708Z" fill="#340065"/>
<path id="Vector_4" d="M46.024 40.4555C46.2241 40.6684 46.4521 40.855 46.6597 41.0608C46.8673 41.2668 47.0628 41.4861 47.2863 41.6752C47.3894 41.7625 47.5802 41.6462 47.4884 41.5193C47.3192 41.2854 47.1218 41.074 46.9336 40.8557C46.7312 40.6209 46.5528 40.3644 46.344 40.1354C46.1478 39.9203 45.8242 40.2431 46.024 40.4555Z" fill="#340065"/>
<path id="Vector_5" d="M15.5917 2.69797C14.6936 3.26687 13.9203 4.03182 13.3419 4.92386C13.0545 5.36717 12.8175 5.96071 13.1122 6.39922C13.4245 6.86416 14.1052 6.83592 14.66 6.75916C16.5361 6.49942 18.418 6.28084 20.3038 6.10387C20.812 6.05595 21.4545 6.0851 21.659 6.55275C21.7599 6.78289 21.7115 7.04789 21.6614 7.29396C21.412 8.521 21.1626 9.74819 20.9129 10.9752C20.7687 11.685 20.7104 12.599 21.343 12.9522C21.6486 13.123 22.023 13.0928 22.37 13.0468C23.2969 12.9241 24.2134 12.7234 25.1069 12.4477C26.017 12.167 26.9603 11.8033 27.8941 11.9908C28.0818 12.0286 28.2797 12.0988 28.3851 12.2585C28.499 12.4311 28.4741 12.6569 28.4449 12.8615C28.277 14.0365 28.109 15.2117 27.9414 16.3869C27.7919 17.4319 27.6767 18.611 28.3362 19.4352C28.8581 20.087 29.7596 20.3365 30.5924 20.2752C31.4254 20.2139 32.2123 19.887 32.9826 19.5642C34.2146 19.048 35.46 18.5244 36.5334 17.7291C37.1108 17.3014 36.1895 16.2019 35.5443 15.8856C34.8991 15.5694 34.1308 15.6544 33.4353 15.8349C32.7397 16.0154 32.058 16.2855 31.3404 16.3211C31.2056 16.3281 31.0641 16.3249 30.9451 16.2612C30.6065 16.0799 30.6659 15.5841 30.7712 15.215C30.981 14.48 31.1819 13.7322 31.1912 12.9677C31.2007 12.2033 30.9992 11.4097 30.4904 10.8393C29.7462 10.0052 28.5095 9.80948 27.3962 9.90833C26.2828 10.007 25.195 10.3449 24.0774 10.3664C23.9525 10.3686 23.8133 10.3611 23.7261 10.2719C23.6403 10.184 23.6349 10.0476 23.6349 9.9244C23.6346 8.7914 23.6344 7.65826 23.6341 6.52526C23.634 6.0872 23.631 5.63442 23.4536 5.23422C23.0467 4.31514 21.9025 4.00373 20.8991 3.94604C19.7479 3.87994 18.5864 4.00147 17.4738 4.30433C17.3239 4.34519 17.1648 4.38935 17.0161 4.34414C16.7537 4.26437 16.6455 3.94784 16.6405 3.67353C16.6354 3.39922 16.6918 3.11394 16.5953 2.8572C16.4987 2.60047 15.8235 2.55135 15.5917 2.69797Z" fill="#340065"/>
<path id="Vector_6" d="M24.5748 18.3939C24.9318 18.4011 25.295 18.3298 25.5907 18.2116C26.1106 18.0038 26.6881 17.5482 26.8075 16.9672C26.8132 16.9575 26.8182 16.9464 26.8222 16.9336C27.1153 15.8892 27.3789 14.4906 26.4092 13.7111C25.5578 13.0267 24.2775 13.2828 23.4877 13.9437C22.6267 14.6641 22.2391 15.957 22.563 17.0344C22.8446 17.9715 23.6747 18.4388 24.5748 18.3939ZM25.6467 15.6332C25.9087 16.1067 25.5316 16.6515 25.0545 16.7665C24.8432 16.8175 24.5199 16.7789 24.2717 16.6534C23.4259 16.0501 25.0973 14.6378 25.6467 15.6332Z" fill="#340065"/>
<path id="Vector_7" d="M35.4345 24.2131C34.3648 23.3742 33.5789 22.3081 33.1929 20.9957C33.1422 20.8225 32.9011 20.8285 32.8485 20.9969C32.3534 22.5777 30.4942 23.4453 28.9585 22.8529C28.7394 22.7805 28.6592 23.114 28.867 23.1944C30.5681 23.7556 31.6714 25.5849 31.3753 27.351C31.3382 27.5721 31.6385 27.6564 31.7134 27.4415C32.2374 25.9411 33.3524 24.2724 35.1841 24.6504C35.2763 24.6696 35.3225 24.5727 35.2828 24.5117C35.4279 24.536 35.5712 24.3194 35.4345 24.2131Z" fill="#340065"/>
<path id="Vector_8" d="M13.7761 29.2543C13.6232 30.0047 13.6878 30.7072 14.0038 31.2119C14.1673 31.4799 14.406 31.7365 14.6811 31.9736C14.954 32.2084 15.2522 32.4169 15.5704 32.5885C16.2115 32.9368 16.9002 33.1413 17.6435 33.2009C18.4015 33.2826 19.2927 33.2359 20.2316 33.6244C20.6943 33.815 21.1334 34.1524 21.4385 34.5486C21.7483 34.9452 21.9607 35.3885 22.0884 35.8423C22.3519 36.7634 22.277 37.6598 22.1833 38.4759C22.0843 39.2891 21.9924 40.0829 21.9722 40.8851C21.9614 41.6841 22.0095 42.4823 22.1642 43.2525C22.3136 44.0222 22.5689 44.7624 22.9343 45.4148C23.302 46.0634 23.779 46.6297 24.3057 47.0544C24.833 47.4773 25.4256 47.7508 25.9544 47.8588C26.4861 47.9648 26.9474 47.914 27.4558 47.7562C27.956 47.5993 28.4621 47.3063 28.9077 46.9293C29.1308 46.7407 29.342 46.5322 29.5281 46.3051C29.7245 46.0646 29.904 45.7979 30.0686 45.5098C30.7382 44.3603 31.0831 42.8099 31.0108 41.2623C30.9772 40.4882 30.8393 39.7148 30.6013 38.9729C30.3697 38.2284 30.0372 37.5155 29.615 36.8637C29.1903 36.2134 28.6775 35.6251 28.0944 35.1277C27.7998 34.8813 27.5005 34.6626 27.1514 34.4132C26.8131 34.1604 26.4441 33.8757 26.1452 33.4447C25.9974 33.2311 25.8727 32.9781 25.8037 32.7053C25.7318 32.4304 25.7256 32.1547 25.7445 31.9067C25.7916 31.4024 25.9044 31.0114 25.9963 30.6199C26.1873 29.8294 26.3959 29.0433 26.6119 28.2588C26.8262 27.4742 27.0389 26.7169 27.0674 25.9791C27.0933 25.2405 26.9124 24.5669 26.47 24.0128C26.0453 23.4498 25.4343 23.0024 24.7735 22.6446C24.1104 22.2919 23.4051 22.0473 22.7014 21.9029C21.9949 21.7727 21.291 21.7354 20.6243 21.8223C20.2896 21.8577 19.9663 21.9307 19.6502 22.0162C19.3394 22.1053 19.0116 22.227 18.7836 22.3462C18.2738 22.6154 17.738 23.0506 17.2311 23.5531C16.7181 24.0519 16.2228 24.619 15.7525 25.2131C15.2818 25.8152 14.8613 26.425 14.5205 27.1043C14.1793 27.7797 13.9308 28.5053 13.7761 29.2543ZM12.5091 29.0849C12.6437 27.3701 13.1112 25.6184 13.9271 24.06C14.1249 23.6693 14.3461 23.2895 14.5914 22.9207C14.8314 22.5483 15.0996 22.1885 15.3996 21.8449C15.9963 21.1596 16.7148 20.5154 17.6626 20.0568C19.5529 19.2115 21.5774 19.3754 23.27 20.064C24.1152 20.4124 24.8935 20.8692 25.5814 21.4218C25.9329 21.6849 26.2646 21.9767 26.5766 22.2988C26.8872 22.6208 27.1849 22.9667 27.4272 23.3615C27.667 23.7554 27.8666 24.1897 27.9782 24.6483C28.0893 25.105 28.1283 25.5666 28.1122 26.012C28.0878 26.9048 27.8983 27.7374 27.7341 28.5309C27.5684 29.3277 27.3955 30.1227 27.2046 30.9128C27.1152 31.313 26.9934 31.7059 26.9648 32.0134C26.9372 32.3296 26.9725 32.541 27.1269 32.7974C27.4323 33.3107 28.1578 33.7614 28.7792 34.3785C29.3935 34.9814 29.9244 35.6569 30.3787 36.374C31.3012 37.8065 31.8961 39.406 32.311 41.0706C32.5135 41.905 32.6731 42.7638 32.7249 43.6625C32.784 44.5593 32.7212 45.5 32.4683 46.4428C32.3394 46.9127 32.1568 47.3783 31.9191 47.8256C31.6673 48.2838 31.3579 48.7067 30.9976 49.0844C30.277 49.834 29.3603 50.4281 28.2913 50.7089C27.7594 50.8458 27.1933 50.9116 26.6262 50.8662C26.0581 50.8287 25.4964 50.6786 25.002 50.4525C24.0006 49.9976 23.2583 49.2585 22.7083 48.4691C22.1749 47.6606 21.8147 46.8076 21.592 45.9411C21.364 45.0789 21.248 44.2223 21.1929 43.3796C21.1395 42.5361 21.126 41.7049 21.1296 40.8779C21.1232 40.0533 21.129 39.2225 21.1355 38.4131C21.1392 37.6133 21.1081 36.8509 20.8987 36.205C20.79 35.8821 20.6447 35.5787 20.4473 35.3382C20.2499 35.0945 20.0214 34.9232 19.7316 34.8058C19.1533 34.5621 18.3737 34.5545 17.5239 34.4799C16.6462 34.4087 15.7427 34.1412 14.9596 33.7048C14.5639 33.4878 14.1924 33.2265 13.8512 32.9296C13.5137 32.6341 13.1868 32.2931 12.9269 31.8648C12.6613 31.435 12.516 30.9169 12.4828 30.4458C12.4456 29.9685 12.4732 29.5178 12.5091 29.0849Z" fill="#340065"/>
<path id="Vector_9" d="M11.1908 33.4712C10.6714 33.2226 10.1387 33.001 9.5968 32.8057C9.76219 32.2993 9.90356 31.7858 10.0129 31.2627C10.1474 30.6198 10.2231 29.6006 9.50816 29.2497C8.66675 28.8369 8.26325 29.9048 7.97587 30.5062C7.71958 31.041 7.49364 31.5902 7.29324 32.1488C6.46385 31.9727 5.62138 31.8572 4.77441 31.8053C4.35243 31.7795 3.80351 31.8614 3.71442 32.2747C3.62895 32.6708 4.05589 32.9703 4.41928 33.149C5.17041 33.5191 5.92604 33.8896 6.69264 34.2312C6.49554 35.1163 6.3644 36.0162 6.30912 36.9216C6.28343 37.3436 6.3647 37.8925 6.77842 37.9817C7.17471 38.0667 7.47411 37.6402 7.65288 37.2767C8.01793 36.5356 8.38388 35.7901 8.72188 35.034C9.28252 35.2234 9.85188 35.3869 10.4332 35.5085C11.0762 35.643 12.095 35.7181 12.4463 35.0038C12.8604 34.1628 11.792 33.7592 11.1908 33.4712Z" fill="#340065"/>
<path id="Vector_10" d="M24.7393 37.1668C24.8078 37.1408 24.8772 37.1177 24.9469 37.0977C25.5076 36.937 26.0663 36.9753 26.4905 37.0267C26.9328 37.0805 27.509 37.1814 28.0419 37.49C29.0114 38.0517 29.6203 39.1434 29.8515 40.7345C30.0187 41.8866 29.9705 42.864 29.7041 43.7227C29.3346 44.9135 28.3178 45.9598 27.13 46.3823C26.1692 46.7242 25.1959 46.6178 24.3893 46.0829C23.7307 45.6459 23.2268 44.9144 22.8923 43.9086C22.5465 42.8694 22.4194 41.7448 22.5245 40.6566C22.6046 39.8287 22.8061 39.147 23.1403 38.5722C23.5237 37.9132 24.0982 37.4108 24.7393 37.1668ZM28.4852 43.3325C28.6935 42.6613 28.7273 41.8698 28.5882 40.9129C28.4706 40.1022 28.1706 39.0436 27.4103 38.6031C27.1516 38.4534 26.8231 38.3607 26.3454 38.3028C26.0401 38.2657 25.6456 38.2358 25.3033 38.3341C24.8916 38.4522 24.5039 38.7776 24.2428 39.2267C24.0034 39.6385 23.8567 40.1494 23.795 40.7889C23.707 41.6984 23.8133 42.6383 24.1022 43.5069C24.3432 44.2313 24.6744 44.7373 25.0868 45.0107C25.6809 45.4047 26.2908 45.3149 26.698 45.1699C27.5009 44.8833 28.2385 44.1278 28.4852 43.3325Z" fill="#340065"/>
<path id="Vector_11" d="M34.2894 26.0254C34.2885 26.794 33.9929 27.5586 33.4776 28.1259C32.9526 28.7039 32.2318 29.0627 31.6584 29.5922C31.1323 30.0779 30.7428 30.7351 30.5961 31.432C30.3439 30.9575 30.0936 30.4862 30.0795 29.9562C30.0718 29.67 30.1357 29.3876 30.177 29.1043C30.2792 28.4029 30.2416 27.674 30.0079 27.0056C29.7743 26.3373 29.4008 25.8713 28.8061 25.4932C29.2366 26.127 29.422 26.9254 29.3152 27.6865C29.2061 28.4621 28.8127 29.1683 28.6366 29.9313C28.3875 31.0106 28.6315 32.2428 29.4313 33.0023C29.6344 33.1952 29.8674 33.3545 30.0664 33.5517C30.3737 33.8562 30.5925 34.2498 30.6909 34.6725C30.6891 34.6773 30.6878 34.6821 30.686 34.6868C30.6887 34.6858 30.6911 34.6846 30.6938 34.6835L30.6939 34.6836L30.6941 34.6833C31.5669 34.3278 32.0547 33.7619 32.2904 32.8417C32.496 32.0388 32.3862 31.1314 32.8333 30.4348C32.9877 30.1943 33.1988 29.9975 33.392 29.7872C33.8698 29.2665 34.2481 28.6434 34.4308 27.9587C34.6135 27.2739 34.5673 26.6763 34.2894 26.0254Z" fill="#340065"/>
<path id="Vector_12" d="M-1.1914 48.5503C-1.32164 49.4768 -0.605519 50.2963 0.333389 50.3492C0.73404 50.3719 1.14731 50.4611 1.53249 50.5487C2.62372 50.7966 3.72908 50.9821 4.84165 51.1041C5.50309 51.1768 6.17475 51.2265 6.83153 51.1202C7.47705 51.0156 8.08697 50.7635 8.70304 50.5451C10.1076 50.0471 11.5728 49.7172 13.0563 49.5652C13.7212 49.4968 14.4074 49.4597 15.0121 49.1762C15.6167 48.8931 16.1279 48.2869 16.0638 47.625C15.6436 47.1458 15.0305 47.0451 14.3918 47.0174C12.9552 46.9549 11.571 47.4895 10.1737 47.8278C8.63349 48.2005 7.03569 48.3381 5.45397 48.2339C7.09473 47.342 9.04375 46.9054 10.7939 46.2511C11.5659 45.9622 12.3027 45.581 12.9839 45.1184C14.0575 44.3886 15.07 43.2694 14.8483 41.9509C14.8053 41.6959 14.6757 41.4547 14.4562 41.3165C14.0518 41.0623 13.6713 41.2995 13.3414 41.5178C11.4685 42.7562 9.47595 43.8154 7.40029 44.6759C5.93739 45.2825 4.38902 45.8178 3.2395 46.9033C3.30214 46.6472 3.48932 46.3427 3.63609 46.1231C4.54991 44.7551 6.24445 44.1871 7.68211 43.3798C8.5447 42.8953 9.3436 42.2995 10.0528 41.6116C10.7605 40.9253 11.3922 40.1268 11.5211 39.0943C11.5675 38.723 11.5151 38.3456 11.3757 37.998C11.324 37.8692 11.2561 37.7418 11.1471 37.6556C10.7948 37.3774 10.2846 37.6669 9.95472 37.9709C8.67991 39.1466 7.71636 40.6452 6.33714 41.6979C5.41326 42.4029 4.31962 42.894 3.509 43.7253C2.84501 44.406 2.41311 45.2723 1.99218 46.1232C1.80139 45.8273 1.88867 45.3614 1.93254 45.0129C2.22698 42.6727 3.51381 40.4722 3.22943 38.0947C3.19052 37.7699 3.04075 37.4594 2.78191 37.2578C2.15893 36.7727 1.45557 37.2637 1.1407 37.8405C0.544006 38.9336 0.830033 40.2664 0.84806 41.5101C0.860528 42.3652 0.736444 43.2221 0.482413 44.039C0.134942 45.1559 -0.449284 46.1847 -0.862403 47.2792C-1.01789 47.6895 -1.13056 48.1173 -1.1914 48.5503Z" fill="#340065"/>
<path id="Vector_13" d="M11.96 25.2345C11.9597 25.2348 11.9596 25.2349 11.9591 25.2354C11.345 25.8156 10.5436 25.9635 9.97917 25.9855C9.48478 26.0048 9.01502 25.9418 8.56074 25.8806C8.33045 25.8497 8.11292 25.8205 7.89675 25.8023C7.22705 25.7457 6.73956 25.8306 6.40712 26.0616C6.17261 26.2246 5.96275 26.5006 5.7655 26.9056C5.28959 27.883 5.13966 29.0091 5.34322 30.0764L4.01508 30.3298C3.75714 28.9778 3.94717 27.5514 4.54988 26.3137C4.85108 25.6952 5.20651 25.2491 5.63571 24.9512C6.23736 24.5332 7.01417 24.3709 8.01047 24.455C8.25999 24.476 8.50441 24.5088 8.74071 24.5406C9.15639 24.5965 9.54893 24.6492 9.92644 24.6343C10.3972 24.616 10.7895 24.4804 11.0307 24.2525L11.0312 24.252C11.202 24.0905 11.3435 23.8443 11.464 23.4992C11.6718 22.9044 11.7503 22.2561 11.8336 21.5697C11.9374 20.7133 12.0448 19.8279 12.4184 18.9841C13.1333 17.3705 14.797 16.219 16.5587 16.1185C16.8949 16.0993 17.2244 16.1151 17.5432 16.1302C18.119 16.1577 18.6631 16.1837 19.0879 15.9866C19.7201 15.6938 20.0569 14.92 20.2284 14.3224C20.3109 14.0352 20.3752 13.74 20.4434 13.4275C20.5695 12.8499 20.6997 12.2525 20.9569 11.6726L22.1931 12.2205C21.9916 12.6748 21.8814 13.1804 21.7646 13.7157C21.6948 14.0355 21.6228 14.3661 21.5282 14.6956C21.1704 15.9411 20.523 16.8117 19.6565 17.2135C18.9305 17.55 18.1592 17.5134 17.4789 17.4809C17.1817 17.4668 16.9014 17.4533 16.6358 17.4686C15.3673 17.541 14.1693 18.3702 13.6546 19.5319C13.3625 20.1913 13.2718 20.94 13.1757 21.7329C13.0875 22.4604 12.9964 23.2126 12.7405 23.9454C12.5467 24.4993 12.2914 24.9211 11.96 25.2345Z" fill="#340065"/>
<path id="Vector_14" d="M21.237 29.6945C21.7411 29.7352 22.1509 29.2761 22.036 28.7837C21.9557 28.4389 21.8425 28.1019 21.6976 27.7788C21.5144 27.3705 21.275 26.9765 20.9281 26.6937C20.0627 25.9884 18.7171 26.1707 17.824 26.8405C17.3254 27.2144 16.9407 27.7048 16.6252 28.2448C16.347 28.721 16.6716 29.3252 17.2215 29.3697L21.237 29.6945Z" fill="#340065"/>
<path id="Vector_15" d="M18.3311 24.4544C18.3638 24.2689 18.4708 24.1001 18.6408 23.9872C19.4142 23.4738 20.2618 23.1158 21.1603 22.9224C22.1815 22.7025 23.0702 22.7567 23.8021 23.0839C24.6766 23.4745 25.3738 24.3029 25.667 25.2999C25.9344 26.2085 25.8748 27.2425 25.4995 28.2108C25.1938 28.9998 24.6913 29.7371 24.006 30.402C23.7545 30.6461 23.369 30.6694 23.1094 30.4559C22.9666 30.3385 22.8815 30.1738 22.8635 29.98C22.8257 29.571 23.0191 29.2029 23.1919 28.9278C23.3234 28.7181 23.4707 28.5152 23.613 28.3188C23.9492 27.8554 24.2668 27.4175 24.396 26.899C24.5256 26.376 24.4359 25.7925 24.155 25.3358C23.8739 24.8791 23.3964 24.5414 22.8775 24.4319C22.3482 24.3203 21.7906 24.4328 21.3151 24.5575C20.8543 24.6786 20.3965 24.831 19.9546 25.0109C19.6923 25.1178 19.4554 25.2014 19.2309 25.2667L19.2127 25.272C18.8741 25.3695 18.5337 25.2089 18.3868 24.8808C18.324 24.74 18.3069 24.5926 18.3311 24.4544ZM25.3814 27.2075C25.4899 26.5908 25.463 25.9743 25.2978 25.4121C25.0364 24.524 24.4194 23.7877 23.6471 23.4427C22.9906 23.1494 22.1809 23.1035 21.2403 23.3058C20.3887 23.4891 19.5851 23.8287 18.8519 24.3153C18.6844 24.4265 18.6858 24.602 18.7379 24.7181C18.7921 24.8393 18.9183 24.9493 19.1095 24.8941L19.178 25.078L19.1249 24.8896C19.3367 24.8279 19.5613 24.7486 19.8114 24.6467C20.2687 24.4604 20.7422 24.3029 21.2188 24.1777C21.7374 24.0416 22.3491 23.9198 22.9561 24.0478C23.5759 24.1785 24.1463 24.5821 24.482 25.1276C24.8178 25.6731 24.9255 26.3724 24.77 26.9949C24.6222 27.5878 24.2672 28.0777 23.9237 28.5512C23.7851 28.7423 23.6418 28.94 23.5171 29.1383C23.3777 29.3608 23.2211 29.6527 23.2478 29.9431C23.2559 30.0306 23.2911 30.1006 23.3522 30.151H23.3523C23.4599 30.2393 23.6301 30.2252 23.7399 30.1184C24.3847 29.493 24.8561 28.8027 25.1412 28.0669C25.2504 27.7843 25.3308 27.4959 25.3814 27.2075Z" fill="#340065"/>
<path id="Vector_16" d="M55.8563 30.9846C55.8981 31.4616 55.7461 31.9471 55.4016 32.3362C53.836 34.1072 51.9852 35.5456 49.901 36.6128C47.5321 37.8265 45.3087 38.2796 43.2921 37.9589C40.8825 37.5761 38.6211 36.0014 37.2433 33.7461C35.9871 31.691 35.4535 29.1121 35.7398 26.4865C35.9731 24.3469 36.725 22.2047 37.9743 20.1195C38.4325 19.3542 39.3661 19.0428 40.1455 19.396V19.3963C40.5747 19.5905 40.8921 19.9386 41.064 20.4026C41.4265 21.3822 41.1926 22.4138 40.9483 23.2034C40.7626 23.8052 40.5335 24.4009 40.3124 24.9767C39.7897 26.3368 39.2964 27.6217 39.3195 28.9805C39.3448 30.3502 39.9494 31.7245 40.9417 32.6609C41.9338 33.5969 43.3315 34.1116 44.6806 34.0383C46.057 33.9633 47.3552 33.3193 48.4436 32.6995C49.4984 32.098 50.5247 31.4215 51.4943 30.6884C52.0696 30.2529 52.5975 29.8913 53.1069 29.5827L53.1484 29.558C53.9177 29.0953 54.8613 29.2652 55.4389 29.9741C55.6861 30.2783 55.8252 30.6291 55.8563 30.9846ZM36.6909 28.8726C36.8297 30.4587 37.3016 31.9556 38.0784 33.2269C39.3062 35.2359 41.3094 36.6372 43.4375 36.9753C45.2461 37.2626 47.2695 36.8415 49.4515 35.7241C51.4271 34.7125 53.1816 33.3483 54.6661 31.6695C55.0052 31.286 54.8863 30.8562 54.6817 30.6052C54.4684 30.3432 54.0853 30.1565 53.6512 30.418L53.3614 30.0113L53.6162 30.439C53.1356 30.7302 52.6351 31.0734 52.0863 31.4885C51.0834 32.2474 50.0216 32.947 48.9305 33.5687C47.7437 34.245 46.3181 34.9476 44.7401 35.0334C43.1284 35.1213 41.4588 34.5061 40.2733 33.3879C39.0879 32.2698 38.3629 30.6231 38.3357 28.9916C38.3093 27.4377 38.8609 26.0003 39.3948 24.611C39.6101 24.0501 39.8329 23.4702 40.0089 22.9009C40.2059 22.2627 40.3994 21.4423 40.1425 20.7469C40.0648 20.5369 39.9322 20.3884 39.7484 20.3053L39.748 20.305C39.4255 20.159 39.0158 20.3062 38.8155 20.6409C37.6403 22.6021 36.9343 24.6082 36.7167 26.6033C36.6338 27.3696 36.6259 28.131 36.6909 28.8726Z" fill="#340065"/>
<path id="Vector_17" d="M14.5888 29.6656C14.6504 30.5247 15.1777 31.3235 15.915 31.7682C16.652 32.211 17.5766 32.3087 18.4083 32.0827C18.9494 31.9369 19.417 31.6397 19.8212 31.2606C20.0288 31.066 19.9969 30.7268 19.7627 30.5652C19.6078 30.4582 19.4037 30.4597 19.2488 30.5667C18.6873 30.9547 18.055 31.2353 17.3794 31.266C16.4816 31.3055 15.5186 30.7947 15.2602 29.9345C15.1878 29.6943 15.1717 29.4419 15.1808 29.1919C15.1983 28.7232 15.3058 28.2574 15.4927 27.8273C15.5333 27.7342 15.5055 27.6256 15.4218 27.5679L15.4095 27.5595C15.3042 27.4867 15.1592 27.5252 15.1027 27.64C14.7855 28.2837 14.5385 28.9603 14.5888 29.6656ZM19.6125 30.8659C19.6957 30.9233 19.7164 31.0366 19.6597 31.1187C19.6023 31.202 19.489 31.2227 19.4058 31.1652C19.3236 31.1084 19.303 30.9953 19.3604 30.912C19.4172 30.8299 19.5305 30.8091 19.6125 30.8659ZM18.8519 31.3295C18.9341 31.3863 18.9548 31.4996 18.898 31.5817C18.8406 31.665 18.7274 31.6857 18.6452 31.6289C18.5621 31.5714 18.5423 31.4588 18.5997 31.3758C18.6565 31.2936 18.7687 31.2721 18.8519 31.3295ZM17.8292 31.563C17.9113 31.6197 17.9321 31.7329 17.8747 31.8161C17.8179 31.8983 17.7048 31.919 17.6225 31.8622C17.5403 31.8054 17.5197 31.6923 17.5763 31.6101C17.6337 31.5269 17.747 31.5062 17.8292 31.563ZM16.6092 31.4159C16.6914 31.4727 16.7121 31.5858 16.6555 31.668C16.5979 31.7512 16.4848 31.7719 16.4026 31.7151C16.3194 31.6576 16.2987 31.5445 16.3561 31.4614C16.4128 31.3791 16.5261 31.3583 16.6092 31.4159ZM15.6892 30.8539C15.7714 30.9107 15.7921 31.0239 15.7353 31.1061C15.6779 31.1893 15.5647 31.2101 15.4825 31.1533C15.3993 31.0958 15.3796 30.9832 15.437 30.9002C15.4938 30.818 15.606 30.7965 15.6892 30.8539ZM15.0269 29.7928C15.1101 29.8504 15.1305 29.9619 15.073 30.0451C15.0163 30.1273 14.904 30.1486 14.8209 30.0912C14.7387 30.0344 14.718 29.9213 14.7748 29.8391C14.8322 29.7559 14.9447 29.7361 15.0269 29.7928ZM15.021 28.7835C15.1032 28.8403 15.1247 28.9525 15.0673 29.0357C15.0105 29.1179 14.8974 29.1385 14.815 29.0818C14.7329 29.0251 14.7121 28.9118 14.7689 28.8296C14.8265 28.7464 14.9388 28.7267 15.021 28.7835ZM15.2337 27.9069C15.2926 27.9476 15.3063 28.0276 15.2665 28.0852C15.2259 28.1443 15.1461 28.1596 15.0874 28.119C15.0296 28.0791 15.0148 27.9986 15.0556 27.9397C15.0954 27.8817 15.1759 27.867 15.2337 27.9069Z" fill="#340065"/>
<path id="Vector_18" d="M18.2551 49.2407C20.2375 52.1686 23.752 53.9259 27.286 53.9934C30.8156 54.0551 34.3031 52.5042 36.7962 49.9939C38.4209 48.3644 39.4737 46.3483 40.1324 44.1706C40.4706 43.0526 39.6612 41.9122 38.4969 41.8179C37.7264 41.7557 37.0037 42.1801 36.6724 42.8786C35.4729 45.4108 33.8006 47.7066 31.4616 49.2019C28.3508 51.1851 23.8788 51.3464 21.1938 48.8183C20.4434 48.1126 19.8682 47.2483 19.388 46.341C18.4875 44.6385 17.9138 42.7621 17.6955 40.849C17.6482 40.4346 17.3267 40.1058 16.9109 40.0721L16.8494 40.0673C16.3261 40.0248 15.8894 40.4593 15.9241 40.9834C16.1177 43.9233 16.6285 46.8362 18.2551 49.2407ZM38.58 43.1956C38.9938 43.2291 39.2997 43.5891 39.267 43.9978C39.2335 44.4117 38.8735 44.7176 38.4596 44.6841C38.0509 44.6509 37.745 44.2909 37.7785 43.8775C37.8117 43.4687 38.1717 43.1626 38.58 43.1956ZM36.8275 46.4055C37.2362 46.4387 37.5424 46.7986 37.5092 47.2072C37.4757 47.6213 37.1159 47.9271 36.7071 47.8939C36.2936 47.8604 35.9922 47.5009 36.0257 47.0874C36.0589 46.6786 36.4139 46.372 36.8275 46.4055ZM33.6705 49.3346C34.0792 49.3678 34.3854 49.7276 34.3519 50.1411C34.3187 50.5498 33.9589 50.8556 33.5501 50.8229C33.1415 50.7897 32.8355 50.4299 32.8684 50.0211C32.9019 49.6077 33.2619 49.3014 33.6705 49.3346ZM29.0311 51.3158C29.4398 51.349 29.746 51.7089 29.7129 52.1175C29.6793 52.5314 29.3195 52.8372 28.9107 52.8042C28.4969 52.7705 28.191 52.4107 28.2245 51.9972C28.2577 51.5881 28.6176 51.2823 29.0311 51.3158ZM24.6066 51.2067C25.0154 51.2397 25.3215 51.5997 25.2885 52.0083C25.255 52.4223 24.8951 52.7282 24.4863 52.695C24.0724 52.6615 23.7714 52.302 23.805 51.8884C23.8378 51.4796 24.1928 51.173 24.6066 51.2067ZM20.0739 48.7936C20.4874 48.8271 20.7891 49.1815 20.7556 49.5954C20.7224 50.004 20.3674 50.3106 19.9538 50.2771C19.5452 50.2439 19.2394 49.8841 19.2721 49.4753C19.3056 49.0615 19.6651 48.7604 20.0739 48.7936ZM17.9812 45.2168C18.39 45.25 18.6966 45.6046 18.663 46.0185C18.6299 46.4271 18.27 46.733 17.8614 46.7002C17.4526 46.667 17.1463 46.3072 17.1795 45.8985C17.213 45.4846 17.5726 45.1836 17.9812 45.2168ZM16.9381 41.6638C17.2309 41.6875 17.4436 41.9435 17.4206 42.2307C17.397 42.5235 17.1457 42.7419 16.8532 42.7181C16.5655 42.6949 16.3475 42.4386 16.3714 42.1458C16.3941 41.8582 16.6505 41.6403 16.9381 41.6638Z" fill="#340065"/>
<path id="Vector_19" d="M40.9449 46.1623C40.6607 46.2682 40.3718 46.4069 40.195 46.6548C40.1402 46.7315 40.0964 46.8236 40.1074 46.9177C40.1212 47.0356 40.2183 47.1275 40.323 47.182C40.5552 47.3027 40.8323 47.2871 41.0909 47.249C41.4031 47.2032 41.7106 47.1292 42.016 47.0497C42.4314 46.9417 42.8576 46.8167 43.1875 46.5404C43.3231 46.4269 43.4478 46.2564 43.4005 46.0851C43.2976 45.7128 42.6521 45.7549 42.3674 45.8111C41.8844 45.9065 41.4088 45.9894 40.9449 46.1623Z" fill="#340065"/>
<path id="Vector_20" d="M38.9101 36.773C39.0587 36.9721 39.12 37.2237 39.1563 37.4705C39.2899 38.3743 39.1311 39.3199 38.71 40.1281C38.5601 40.4155 38.3681 40.6955 38.0885 40.8546C37.8088 41.0139 37.4248 41.0205 37.1915 40.7972C37.0353 40.6475 36.9711 40.4266 36.8612 40.2392C36.7514 40.0517 36.5443 39.8812 36.3387 39.9455C36.1694 39.9985 36.0818 40.1848 36.0289 40.356C35.8832 40.8286 35.8505 41.3357 35.6594 41.7913C35.4683 42.2469 35.0451 42.6629 34.559 42.6159C34.0922 42.5707 33.7658 42.1308 33.5615 41.7033C32.8805 40.279 32.8894 38.5596 33.4779 37.0936C33.6116 36.7608 33.7788 36.4321 34.0396 36.1889C34.3006 35.9457 34.6706 35.7994 35.0153 35.8831C35.4444 35.9872 35.7265 36.4077 35.8745 36.8289C36.0225 37.2501 36.0804 37.7046 36.279 38.1039C36.4332 38.4139 36.7706 38.7085 37.0867 38.5748C37.3269 38.4733 37.4188 38.1736 37.4193 37.9101C37.4197 37.6464 37.359 37.3787 37.4178 37.1218C37.5689 36.4607 38.4949 36.2167 38.9101 36.773Z" fill="#340065"/>
<path id="Vector_21" d="M34.7013 34.2305C33.2439 34.3775 32.4347 35.908 32.4956 37.0747C32.5089 37.3293 32.9139 37.4034 33.0105 37.1062C33.2619 36.3327 33.5849 35.2027 34.6401 35.0504C35.7497 34.89 35.832 35.9011 36.1693 36.5474C36.2965 36.7912 36.7595 36.7131 36.8448 36.4229C37.1972 35.2232 35.9541 34.1041 34.7013 34.2305Z" fill="#340065"/>
<path id="Vector_22" d="M44.1961 45.79C44.3335 45.1412 44.7183 44.5663 45.185 44.0953C45.8337 43.4409 46.67 42.9538 47.5802 42.8104C48.4904 42.6671 49.4716 42.891 50.1713 43.4904C50.6825 43.9283 51.019 44.5319 51.3244 45.1317C51.542 45.5593 51.7515 45.9985 51.8373 46.4705C51.909 46.8652 51.8909 47.2757 51.7852 47.6626C51.6088 48.3069 51.1957 48.8675 50.6993 49.3146C49.9182 50.0181 48.8519 50.4758 47.8153 50.3002C47.287 50.2107 46.7929 49.9621 46.3739 49.6278C46.1615 49.4584 45.9641 49.2634 45.8307 49.0266C45.6669 48.7362 45.6076 48.3984 45.5855 48.0658C45.5468 47.4828 45.618 46.8838 45.863 46.3534C46.108 45.8229 46.538 45.3659 47.083 45.155C47.628 44.9441 48.2864 45.0051 48.7445 45.3677C49.2025 45.7305 49.4107 46.4029 49.1788 46.9392C48.9468 47.4755 48.2591 47.7846 47.7247 47.5481C47.5457 47.4689 47.3798 47.3357 47.1841 47.3325C46.889 47.3276 46.6638 47.6501 46.6943 47.9435C46.7248 48.2369 46.946 48.4804 47.2 48.6303C47.7273 48.9416 48.4155 48.9186 48.9599 48.6386C49.5045 48.3586 49.9089 47.8469 50.1334 47.2772C50.343 46.7458 50.4057 46.1512 50.2724 45.5955C49.9817 44.3841 48.6609 43.5563 47.4459 43.7602C46.5498 43.9106 45.8558 44.5645 45.5284 45.394C45.3845 45.7589 45.2947 46.1418 45.2202 46.5261C45.165 46.8103 45.1261 47.2039 44.8173 47.3397C44.0947 47.6576 44.1226 46.1364 44.1961 45.79Z" fill="#340065"/>
<path id="Vector_23" d="M41.7573 43.4326C42.1021 44.0495 42.9566 44.2747 43.6162 44.0151C44.276 43.7555 44.7259 43.101 44.8658 42.4091C45.2205 40.6557 43.6225 39.4218 41.9663 39.85C41.4361 39.9871 40.8859 40.2772 40.8602 40.8826C40.8439 41.2723 41.194 41.5809 41.3293 41.9177C41.5254 42.4049 41.4985 42.9696 41.7573 43.4326Z" fill="#340065"/>
<path id="Vector_24" d="M19.8495 -2.63403C18.9515 -2.06513 18.1781 -1.30019 17.5997 -0.408149C17.3122 0.0350158 17.0753 0.628708 17.37 1.06722C17.6824 1.53216 18.3627 1.50407 18.9178 1.42716C20.7938 1.16742 22.6758 0.948838 24.5616 0.771873C25.0698 0.724101 25.7122 0.753091 25.9168 1.22074C26.0176 1.45104 25.9692 1.71589 25.9192 1.96196C25.6698 3.189 25.4205 4.41619 25.1708 5.64323C25.0264 6.35304 24.9683 7.26701 25.6009 7.62019C25.9064 7.79099 26.2808 7.7608 26.6277 7.71483C27.5546 7.5921 28.4712 7.3914 29.3648 7.11543C30.2747 6.83466 31.218 6.47097 32.1519 6.65845C32.3397 6.69631 32.5374 6.76646 32.6428 6.9263C32.7569 7.09891 32.7318 7.32455 32.7025 7.529C32.5348 8.70422 32.3667 9.87928 32.1991 11.0545C32.0496 12.0995 31.9344 13.2786 32.5939 14.1027C33.1158 14.7545 34.0173 15.0041 34.8501 14.9428C35.683 14.8812 36.47 14.5546 37.2402 14.2318C38.4723 13.7156 39.7177 13.1919 40.7912 12.3966C41.3687 11.9689 40.4473 10.8694 39.8021 10.553C39.1569 10.2368 38.3887 10.3217 37.6933 10.5023C36.9977 10.6828 36.3159 10.9529 35.5984 10.9888C35.4636 10.9958 35.322 10.9926 35.2031 10.9289C34.8645 10.7476 34.9237 10.252 35.0292 9.88243C35.2387 9.14753 35.4399 8.39971 35.4492 7.63521C35.4585 6.87087 35.2572 6.07708 34.7483 5.50682C34.0039 4.67277 32.7674 4.47703 31.6541 4.57572C30.5406 4.67457 29.4528 5.01243 28.3353 5.03376C28.2103 5.03602 28.071 5.02895 27.9839 4.93942C27.8981 4.85154 27.8929 4.71513 27.8927 4.59195C27.8924 3.4588 27.8923 2.3258 27.892 1.19265C27.8918 0.754746 27.8888 0.301968 27.7115 -0.0983825C27.3046 -1.01731 26.1603 -1.32873 25.157 -1.38641C24.0059 -1.45266 22.8442 -1.33113 21.7318 -1.02813C21.5819 -0.987269 21.4227 -0.943251 21.2739 -0.988319C21.0115 -1.06809 20.9035 -1.38461 20.8984 -1.65892C20.8933 -1.93323 20.9495 -2.21851 20.8533 -2.4754C20.7564 -2.73153 20.0813 -2.78065 19.8495 -2.63403Z" fill="#340065"/>
</g>
</g>
</g>
<g id="Mask group_2">
<mask id="mask1_169_10465" style="mask-type:alpha" maskUnits="userSpaceOnUse" x="51" y="0" width="49" height="48">
<g id="Group_3">
<path id="Vector_25" d="M98.8686 15.3808C97.5533 6.58357 89.6895 0.254883 80.8067 0.254883H59.4078C55.2244 0.254883 51.8323 3.65163 51.8323 7.84081C51.8323 12.0301 55.2244 15.4267 59.4078 15.4267H81.5728C82.8858 15.4267 84.0816 16.3723 84.2114 17.6801C84.3619 19.1836 83.1868 20.451 81.7154 20.451H59.4078C55.2244 20.451 51.8323 23.8478 51.8323 28.0371V39.9043C51.8323 44.0935 55.2244 47.4902 59.4078 47.4902H99.0673L86.4455 34.8512C94.6128 32.4621 100.211 24.3642 98.8686 15.3808Z" fill="#EDB011"/>
</g>
</mask>
<g mask="url(#mask1_169_10465)">
<g id="Group_4">
<path id="Vector_26" d="M76.7653 20.8831C76.8061 20.3439 76.3763 19.8937 76.0023 19.5667C75.2397 18.8977 74.062 18.5164 73.2969 19.3959C72.4891 20.3246 72.8273 21.5895 73.1932 22.6281C73.3573 23.0931 73.5102 23.5341 73.0062 23.8613C72.7017 24.0586 72.3048 24.1534 71.9602 24.249C71.2834 24.4361 70.5845 24.5578 69.9482 24.8693C68.9349 25.3651 68.1607 26.3786 68.0645 27.5244C67.9679 28.6778 68.6065 30.0315 69.7688 30.3848C70.2154 30.5203 70.7366 30.4603 71.0309 30.0608C71.2944 29.7048 71.2983 29.2555 70.9983 28.9418C70.8501 28.5937 70.6305 28.25 70.4112 27.9524C70.3697 27.5976 70.4094 27.2346 70.5226 26.9508C70.8629 26.104 72.1667 26.5413 72.8396 26.5748C73.8275 26.6234 74.9211 26.3211 75.2687 25.2839C75.6626 24.1042 74.9734 22.7837 76.0595 21.8732C76.3787 21.6064 76.7306 21.3335 76.7653 20.8831Z" fill="#340065"/>
<path id="Vector_27" d="M69.8751 14.6617C70.4772 14.8583 71.1804 14.486 71.4612 13.9132C71.7421 13.3401 71.6446 12.6348 71.3188 12.0934C70.4934 10.7219 68.6864 10.8821 67.8465 12.1733C67.5776 12.5866 67.3878 13.113 67.7371 13.5278C67.962 13.7944 68.3811 13.7845 68.6747 13.9241C69.0995 14.1257 69.4232 14.5141 69.8751 14.6617Z" fill="#340065"/>
<path id="Vector_28" d="M68.7371 41.7806C69.8571 41.7124 70.8268 41.3546 71.4211 40.716C71.7383 40.3831 72.0111 39.948 72.2422 39.4687C72.471 38.9934 72.6529 38.4925 72.7752 37.9771C73.025 36.9375 73.0533 35.8855 72.8556 34.8111C72.684 33.7074 72.2799 32.464 72.4737 30.9879C72.568 30.2608 72.879 29.5116 73.324 28.9296C73.7677 28.3409 74.3146 27.8722 74.9084 27.5193C76.1117 26.7973 77.4087 26.5633 78.5991 26.3865C79.7874 26.2181 80.9458 26.0472 82.0887 25.7714C83.2235 25.4839 84.3349 25.113 85.366 24.6021C86.3987 24.099 87.3493 23.4568 88.1342 22.6924C88.9124 21.926 89.533 21.0363 89.9344 20.13C90.3328 19.2234 90.4952 18.2811 90.4475 17.4918C90.3959 16.6992 90.1491 16.0657 89.7331 15.4062C89.3212 14.7577 88.7149 14.1524 88.0121 13.6649C87.6609 13.4208 87.2856 13.2009 86.8937 13.0236C86.4787 12.837 86.0333 12.684 85.5633 12.5603C83.6826 12.0485 81.3577 12.1484 79.1952 12.8375C78.1124 13.1785 77.0703 13.667 76.1103 14.2851C75.1447 14.8953 74.262 15.636 73.4997 16.4808C72.7405 17.3285 72.1023 18.2771 71.6197 19.291C71.3826 19.8012 71.1866 20.3076 70.966 20.8963C70.7366 21.4709 70.4734 22.101 69.9771 22.6873C69.7309 22.9775 69.4201 23.2501 69.0601 23.4511C68.6984 23.6572 68.3105 23.7704 67.9525 23.8376C67.2211 23.9621 66.6248 23.9509 66.0359 23.9692C64.8448 23.9989 63.6531 24.0016 62.4612 23.9932C61.2696 23.9877 60.1171 23.9738 59.0625 24.2131C58.0073 24.4567 57.1225 24.9682 56.5064 25.8042C55.8706 26.6189 55.4692 27.653 55.2134 28.724C54.9657 29.796 54.8868 30.8871 54.9496 31.9374C55.033 32.9866 55.2472 33.9969 55.6231 34.9075C55.8 35.3677 56.026 35.7975 56.2668 36.2122C56.5108 36.6185 56.807 37.0362 57.0625 37.3137C57.6367 37.9331 58.4557 38.5262 59.359 39.0529C60.2595 39.5899 61.2498 40.0756 62.2689 40.516C63.2994 40.9538 64.3219 41.3175 65.4122 41.5424C66.4976 41.7691 67.6186 41.8457 68.7371 41.7806ZM68.9778 43.6379C66.5001 44.0976 63.844 44.1003 61.3291 43.5365C60.7011 43.4047 60.08 43.2357 59.4651 43.0286C58.8469 42.83 58.2362 42.5868 57.6362 42.2926C56.44 41.7081 55.2559 40.9355 54.2476 39.7682C52.3345 37.4137 51.7988 34.4865 52.1317 31.83C52.3041 30.5019 52.6554 29.2272 53.1765 28.0442C53.4158 27.447 53.7029 26.867 54.0403 26.3034C54.3783 25.7417 54.7548 25.1892 55.2215 24.6966C55.6881 24.2079 56.2268 23.7608 56.8336 23.4288C57.4379 23.0986 58.0762 22.8683 58.7129 22.7222C59.9856 22.4183 61.2355 22.3706 62.4208 22.3021C63.6111 22.2344 64.8017 22.1777 65.9922 22.1483C66.5925 22.1231 67.1948 22.1465 67.6406 22.0702C68.0987 21.9895 68.3844 21.8593 68.6886 21.5436C69.2994 20.9168 69.6619 19.7192 70.2996 18.6057C70.9199 17.508 71.6745 16.5004 72.5171 15.5856C74.1945 13.7369 76.2323 12.2886 78.4309 11.0702C79.5349 10.4672 80.6897 9.91576 81.9418 9.50174C83.1885 9.07795 84.5434 8.8101 85.9735 8.81055C86.6876 8.8146 87.4157 8.89678 88.1387 9.06338C88.8828 9.2459 89.5985 9.52352 90.2694 9.89007C91.6035 10.6257 92.792 11.6977 93.5946 13.1038C93.9902 13.8049 94.2978 14.581 94.4488 15.4006C94.6109 16.2191 94.6115 17.0707 94.4791 17.8562C94.215 19.4457 93.4506 20.7764 92.5418 21.854C91.6001 22.9157 90.5296 23.7488 89.3877 24.3924C88.2541 25.0421 87.086 25.5311 85.9142 25.9286C84.7406 26.3238 83.5696 26.6581 82.3979 26.9666C81.2335 27.2886 80.0557 27.5953 78.9075 27.8929C77.7745 28.191 76.7073 28.524 75.8725 29.0654C75.457 29.3417 75.0827 29.6623 74.8171 30.0329C74.5473 30.4047 74.3915 30.7929 74.335 31.2474C74.2095 32.1584 74.4944 33.2644 74.7111 34.4953C74.9432 35.7644 74.907 37.1445 74.5865 38.4183C74.4295 39.0604 74.2004 39.6851 73.9097 40.2806C73.6196 40.8703 73.261 41.4623 72.7534 41.9925C72.2459 42.5313 71.5677 42.9335 70.9138 43.159C70.2525 43.3927 69.6042 43.5243 68.9778 43.6379Z" fill="#340065"/>
<path id="Vector_29" d="M75.6848 43.8424C75.53 44.6719 75.4183 45.5096 75.3474 46.3505C74.5682 46.3086 73.7878 46.3032 73.0062 46.3468C72.0453 46.4003 70.5742 46.6797 70.3488 47.8244C70.0835 49.1716 71.7479 49.3376 72.708 49.5164C73.562 49.6762 74.4249 49.7879 75.2911 49.8595C75.3564 51.0999 75.5125 52.336 75.7602 53.5542C75.8839 54.1612 76.2079 54.9071 76.8264 54.8764C77.4195 54.8471 77.6815 54.1295 77.7966 53.5474C78.0354 52.3439 78.2731 51.1343 78.466 49.9199C79.7934 49.8633 81.1164 49.7075 82.4187 49.4423C83.0256 49.3188 83.7715 48.9956 83.741 48.3763C83.7109 47.7832 82.9939 47.5213 82.4118 47.4062C81.2244 47.1706 80.0309 46.9354 78.8325 46.7437C78.8879 45.8785 78.9036 45.0108 78.8552 44.1419C78.8017 43.1811 78.5217 41.7107 77.3776 41.4847C76.0305 41.2173 75.8644 42.8823 75.6848 43.8424Z" fill="#340065"/>
<path id="Vector_30" d="M75.7835 23.2693C75.7206 23.1822 75.6617 23.0928 75.6068 23.0018C75.1667 22.2693 75.0092 21.4642 74.9211 20.8444C74.8293 20.198 74.7537 19.3442 74.9884 18.4732C75.4158 16.8881 76.7296 15.6126 78.8938 14.6822C80.4608 14.0085 81.8622 13.7063 83.1783 13.7575C85.0036 13.829 86.87 14.871 87.9181 16.3919C88.7663 17.6219 88.985 19.0396 88.5336 20.3838C88.1649 21.4816 87.3208 22.4719 86.0245 23.3269C84.6848 24.2102 83.1417 24.8167 81.5616 25.0803C80.3598 25.281 79.3188 25.2544 78.3786 24.9993C77.3005 24.7068 76.3716 24.0843 75.7835 23.2693ZM83.0884 15.6304C82.0596 15.59 80.9266 15.8425 79.6251 16.4021C78.5226 16.876 77.1382 17.702 76.8032 18.9449C76.6892 19.3677 76.6828 19.8678 76.7819 20.5657C76.8453 21.0119 76.9526 21.5814 77.2213 22.0286C77.5446 22.5663 78.1523 22.9917 78.8867 23.1909C79.5603 23.3736 80.3389 23.3873 81.2672 23.2322C82.5878 23.0118 83.8776 22.5051 84.9973 21.7668C85.9309 21.1512 86.5213 20.4906 86.7519 19.8033C87.0842 18.8132 86.7258 17.9841 86.3663 17.4628C85.6562 16.4353 84.3073 15.678 83.0884 15.6304Z" fill="#340065"/>
<path id="Vector_31" d="M53.1213 14.439C54.2854 14.1286 55.5634 14.2658 56.6315 14.8159C57.72 15.3767 58.5557 16.3225 59.5902 16.976C60.5393 17.5755 61.6926 17.8988 62.8076 17.838C62.191 18.4126 61.579 18.9828 60.7821 19.2193C60.352 19.347 59.8983 19.365 59.4526 19.4174C58.3489 19.5471 57.2602 19.9 56.3431 20.5249C55.4258 21.15 54.8715 21.9047 54.5402 22.9589C55.3253 22.0495 56.4593 21.4447 57.6551 21.2978C58.8739 21.1482 60.1032 21.4575 61.3301 21.4145C63.0657 21.3537 64.8326 20.4842 65.6581 18.965C65.868 18.579 66.0144 18.1616 66.2324 17.7803C66.5689 17.1914 67.0761 16.7002 67.6764 16.3796C67.6843 16.3803 67.6923 16.3805 67.7001 16.3814C67.6972 16.3778 67.6945 16.3745 67.6917 16.3709L67.692 16.3707L67.6915 16.3706C66.7988 15.193 65.744 14.6838 64.255 14.7004C62.9554 14.7146 61.6259 15.2491 60.3895 14.8548C59.9626 14.7185 59.5789 14.4788 59.1822 14.2718C58.1997 13.7591 57.1026 13.4392 55.9915 13.4404C54.8805 13.4418 53.9943 13.7541 53.1213 14.439Z" fill="#340065"/>
<path id="Vector_32" d="M101.717 55.644C103.078 55.477 103.966 54.1527 103.685 52.8042C103.565 52.2286 103.535 51.6099 103.513 51.0315C103.45 49.3933 103.293 47.7587 103.044 46.1379C102.896 45.1744 102.712 44.205 102.312 43.3159C101.919 42.4421 101.331 41.6744 100.789 40.8856C99.5512 39.0865 98.5289 37.1384 97.751 35.0967C97.4024 34.1816 97.0896 33.2244 96.4593 32.4763C95.8291 31.7282 94.7775 31.2345 93.8652 31.5763C93.3463 32.3525 93.4363 33.2582 93.6392 34.1726C94.0956 36.2295 95.377 37.9855 96.3855 39.8346C97.497 41.873 98.2976 44.0819 98.7499 46.3598C96.8656 44.3762 95.5088 41.7835 93.9191 39.555C93.2177 38.572 92.3988 37.6736 91.4856 36.8852C90.0458 35.6427 88.0782 34.6341 86.2962 35.4479C85.9517 35.6053 85.6594 35.8802 85.5472 36.2433C85.3406 36.9118 85.8207 37.3606 86.2547 37.7447C88.7175 39.9254 90.972 42.3435 92.9769 44.9544C94.3899 46.7947 95.7346 48.7831 97.7067 49.9981C97.3203 50.0067 96.8184 49.8572 96.452 49.7328C94.1698 48.9584 92.7234 46.7756 91.0357 45.0473C90.0232 44.0103 88.8771 43.1056 87.6346 42.3628C86.3948 41.6217 85.0255 41.0303 83.5154 41.2395C82.9723 41.3146 82.4583 41.5319 82.0191 41.861C81.8565 41.9828 81.7019 42.1273 81.6212 42.3144C81.361 42.9184 81.9643 43.5307 82.5197 43.882C84.6669 45.2405 87.153 46.0356 89.1655 47.5883C90.5135 48.6283 91.6234 49.9898 93.1071 50.8219C94.3221 51.5034 95.7119 51.7859 97.0756 52.0592C96.7292 52.4412 96.037 52.4944 95.5269 52.5644C92.1036 53.0354 88.5017 52.0487 85.2451 53.3525C84.8001 53.5307 84.4173 53.8605 84.2302 54.3033C83.7801 55.3687 84.7415 56.1781 85.6771 56.4046C87.4502 56.8347 89.228 55.9245 90.9811 55.4275C92.1865 55.0856 93.4463 54.9362 94.6986 54.9859C96.4109 55.0542 98.0884 55.4908 99.7938 55.6605C100.433 55.7248 101.082 55.7221 101.717 55.644Z" fill="#340065"/>
<path id="Vector_33" d="M63.7328 45.8776C63.7334 45.8779 63.7335 45.878 63.7344 45.8785C64.7883 46.5276 65.3016 47.6056 65.5466 48.3959C65.7616 49.0883 65.8504 49.777 65.9361 50.4431C65.9797 50.7808 66.0209 51.0995 66.0772 51.4125C66.251 52.3816 66.556 53.0393 67.0089 53.4222C67.3286 53.6921 67.7986 53.8846 68.4466 54.0102C70.0101 54.313 71.6606 54.0982 73.0938 53.4054L73.9561 55.1888C72.1406 56.0664 70.0499 56.3384 68.07 55.9548C67.0804 55.7631 66.3143 55.4293 65.73 54.9348C64.9104 54.242 64.386 53.2042 64.1273 51.7623C64.0624 51.4014 64.0161 51.0429 63.9715 50.6965C63.8931 50.087 63.8189 49.5115 63.6547 48.983C63.4502 48.3237 63.1095 47.82 62.6955 47.5651L62.6946 47.5646C62.4013 47.384 61.9992 47.2772 61.4653 47.2376C60.5446 47.1691 59.5975 47.3037 58.5946 47.4462C57.3433 47.6241 56.0495 47.8078 54.7137 47.599C52.1591 47.1991 49.8989 45.2813 49.0885 42.8263C48.9338 42.3579 48.8312 41.8856 48.7319 41.4288C48.5524 40.6035 48.3829 39.8236 47.9429 39.2973C47.2888 38.5137 46.066 38.3304 45.1553 38.3142C44.7176 38.3065 44.2755 38.3274 43.8074 38.3493C42.9422 38.39 42.0473 38.4323 41.1292 38.2882L41.4358 36.3311C42.155 36.4439 42.9125 36.4081 43.7141 36.3704C44.1933 36.3479 44.6884 36.3244 45.1905 36.3335C47.0887 36.3676 48.5662 36.9534 49.4635 38.0273C50.2149 38.9271 50.4556 40.0325 50.6677 41.0077C50.7604 41.4335 50.8475 41.8353 50.97 42.2053C51.5534 43.973 53.1811 45.354 55.0203 45.6419C56.0641 45.8052 57.158 45.6497 58.3166 45.485C59.3796 45.3339 60.4785 45.1775 61.6127 45.2619C62.47 45.3261 63.1637 45.5274 63.7328 45.8776Z" fill="#340065"/>
<path id="Vector_34" d="M60.2167 37.1518C59.9419 37.1759 59.6622 37.0887 59.4381 36.8907C58.4183 35.991 57.5902 34.9272 56.976 33.729C56.2776 32.3674 56.0173 31.089 56.2027 29.9292C56.424 28.5436 57.3318 27.2427 58.6315 26.4497C59.8159 25.7268 61.3019 25.4192 62.8144 25.5831C64.0468 25.7165 65.2808 26.1482 66.4817 26.8658C66.9224 27.129 67.1017 27.6658 66.8978 28.1141C66.7857 28.361 66.585 28.5436 66.3176 28.6425C65.7532 28.8514 65.159 28.7171 64.7041 28.5769C64.3575 28.4704 64.0144 28.3388 63.6827 28.2119C62.8993 27.9117 62.1593 27.6284 61.3764 27.6422C60.5873 27.6571 59.7953 28.0051 59.2557 28.576C58.7161 29.1469 58.4191 29.9507 58.4609 30.7265C58.5037 31.518 58.8743 32.2642 59.2311 32.8899C59.5772 33.4962 59.9666 34.0861 60.3887 34.6433C60.6394 34.9741 60.8475 35.2775 61.0251 35.5703L61.0395 35.5942C61.3058 36.0363 61.2076 36.579 60.799 36.9114C60.6237 37.0537 60.4214 37.1337 60.2167 37.1518ZM61.4394 26.1306C60.5256 26.2109 59.6631 26.4828 58.9305 26.9298C57.7727 27.6365 56.9648 28.7889 56.7693 30.0126C56.6032 31.0526 56.8452 32.216 57.4883 33.4703C58.0704 34.606 58.8558 35.6145 59.8225 36.4676C60.0433 36.6625 60.2909 36.594 60.4356 36.4762C60.5867 36.3535 60.6943 36.1332 60.5437 35.8836L60.7781 35.7168L60.5316 35.8634C60.3641 35.5872 60.1665 35.2995 59.9275 34.9842C59.4906 34.4076 59.0879 33.7972 58.7302 33.1702C58.3408 32.4879 57.9366 31.6684 57.8876 30.761C57.8376 29.8343 58.1924 28.874 58.837 28.192C59.4815 27.51 60.4305 27.0925 61.3703 27.0764C62.2656 27.0608 63.0935 27.3775 63.8938 27.6841C64.2167 27.8076 64.5507 27.9356 64.8786 28.0367C65.2462 28.1497 65.7188 28.2608 66.1196 28.1129C66.2406 28.0681 66.3262 27.9918 66.3741 27.886L66.3743 27.8859C66.4585 27.7003 66.3738 27.4648 66.1811 27.3497C65.0517 26.6746 63.8962 26.2693 62.7466 26.1448C62.3053 26.0973 61.8668 26.0929 61.4394 26.1306Z" fill="#340065"/>
<path id="Vector_35" d="M51.0075 -31.0441C51.8811 -31.362 52.8681 -31.3207 53.7711 -30.8704C57.8796 -28.8238 61.5077 -26.0754 64.5568 -22.7026C68.0237 -18.8696 69.9908 -14.927 70.4028 -10.9836C70.8957 -6.27167 69.0789 -1.23897 65.5412 2.47895C62.3179 5.86758 57.7491 8.16468 52.6805 8.94706C48.5506 9.58491 44.1547 9.25111 39.6158 7.95617C37.95 7.4813 36.8967 5.88667 37.1676 4.24741L37.1682 4.2471C37.3169 3.34455 37.8101 2.5742 38.5941 2.01867C40.2492 0.846607 42.3018 0.766834 43.9053 0.828125C45.1274 0.873947 46.3597 1.00419 47.551 1.12948C50.3647 1.42633 53.0227 1.70589 55.5592 0.979553C58.1159 0.24375 60.3896 -1.58074 61.6471 -3.91238C62.904 -6.24373 63.1669 -9.124 62.3515 -11.6176C61.5191 -14.1615 59.6587 -16.2728 57.9492 -18.0026C56.2911 -19.6784 54.5066 -21.2636 52.6443 -22.7135C51.5381 -23.5739 50.5947 -24.3821 49.7601 -25.1826L49.6926 -25.248C48.4381 -26.4582 48.2826 -28.3133 49.322 -29.7529C49.7683 -30.3698 50.3562 -30.8069 51.0075 -31.0441ZM56.6782 5.96403C59.5833 4.9066 62.1535 3.26929 64.1476 1.17334C67.2987 -2.13912 68.9201 -6.60066 68.4849 -10.7621C68.1149 -14.2987 66.3081 -17.882 63.1157 -21.4129C60.2254 -24.6101 56.7852 -27.215 52.8903 -29.1558C52.0004 -29.5991 51.2541 -29.1601 50.8862 -28.6503C50.5019 -28.1185 50.3443 -27.3062 51.0531 -26.6231L50.4359 -25.8753L51.1101 -26.568C51.8978 -25.8131 52.7931 -25.0468 53.8473 -24.2261C55.7746 -22.7264 57.6208 -21.0864 59.3347 -19.3527C61.1999 -17.4666 63.2341 -15.1458 64.188 -12.229C65.1628 -9.25019 64.848 -5.80958 63.3466 -3.0244C61.8451 -0.239073 59.1209 1.94851 56.0746 2.81936C53.1733 3.64966 50.2002 3.33764 47.3263 3.03449C46.1659 2.91265 44.9665 2.78616 43.8103 2.742C42.5141 2.69347 40.8783 2.7426 39.7029 3.57395C39.348 3.82512 39.1363 4.14856 39.0724 4.53508L39.0723 4.53584C38.9604 5.21441 39.4425 5.9086 40.1709 6.11606C44.4398 7.33469 48.5574 7.65076 52.409 7.05617C53.8878 6.82662 55.3198 6.45887 56.6782 5.96403Z" fill="#340065"/>
<path id="Vector_36" d="M65.2094 5.46013C67.2521 4.0707 69.4716 2.45878 71.0398 0.534546C71.1436 0.407155 71.0067 0.172803 70.8478 0.285772C69.8871 0.968546 69.0152 1.78532 68.0954 2.52233C67.0538 3.35683 65.9739 4.13575 64.8896 4.91301C64.563 5.14721 64.8688 5.69178 65.2094 5.46013Z" fill="#340065"/>
<path id="Vector_37" d="M73.1786 9.65976C73.548 9.82501 74.1225 9.76807 74.4683 9.56151C74.8562 9.32956 74.9379 8.93612 74.8207 8.56251C74.4886 8.3202 73.8309 8.33687 73.5106 8.42355C72.971 8.56957 72.4777 9.34654 73.1786 9.65976Z" fill="#340065"/>
<path id="Vector_38" d="M80.3933 7.23996C80.0505 7.51862 79.5993 7.41617 79.3937 7.01567C79.2772 6.78868 79.2848 6.51497 79.3911 6.30841C79.6708 6.08743 79.9958 5.88237 80.3413 6.12243C80.7062 6.37616 80.7371 6.96039 80.3933 7.23996Z" fill="#340065"/>
<path id="Vector_39" d="M76.3694 1.92427C76.4782 2.1469 76.717 2.20369 76.8985 2.04895C77.0806 1.89362 77.0642 1.56899 76.871 1.42807C76.6881 1.29467 76.516 1.40855 76.3681 1.53143C76.3117 1.6462 76.3077 1.79823 76.3694 1.92427Z" fill="#340065"/>
<path id="Vector_40" fill-rule="evenodd" clip-rule="evenodd" d="M78.5088 4.10629C78.5872 4.10884 78.6605 4.11109 78.7196 4.118C78.935 4.14369 79.1492 4.1769 79.3618 4.22211C79.7428 4.30324 80.1137 4.41605 80.4629 4.59152C81.1121 4.9175 81.6647 5.45501 81.9111 6.15055C82.3173 7.29902 81.4845 8.84649 80.1353 8.6201C79.7002 8.5471 79.331 8.30569 78.9613 8.06383C78.6897 7.88626 78.4178 7.70854 78.1194 7.59722C77.452 7.34785 76.5894 7.38435 76.0771 7.8511C75.924 8.1502 75.8848 8.49001 75.8461 8.82637C75.8324 8.9452 75.8189 9.06357 75.8002 9.17955C75.6886 9.8802 75.3616 10.4716 74.7167 10.8068C73.4549 11.4622 71.9479 10.5836 71.849 9.16513C71.8023 8.50158 72.1289 7.9151 72.5506 7.43002C72.7163 7.23908 72.8956 7.06062 73.075 6.88215C73.1309 6.82672 73.1866 6.77113 73.2421 6.71525C73.3941 6.56217 73.5452 6.40729 73.6828 6.24159C73.6929 6.22927 73.7023 6.21801 73.7112 6.20734C73.809 6.09047 73.8366 6.05756 73.8155 5.86753C73.8111 5.83042 73.8081 5.80038 73.8055 5.77604V5.77574C73.7986 5.70724 73.7964 5.68456 73.7838 5.67449C73.7776 5.66938 73.7687 5.66758 73.7555 5.66473C73.7324 5.65992 73.6956 5.65211 73.6352 5.61936C73.4069 5.49527 73.0848 5.46793 72.7761 5.44179C72.5898 5.42587 72.4083 5.41054 72.2555 5.37449C71.9234 5.29712 71.6093 5.17544 71.3397 4.96137C70.9056 4.61751 70.6411 4.06438 70.8599 3.52131C71.0617 3.01986 71.5995 2.75336 72.1027 2.65842C72.3668 2.60869 72.6904 2.65106 73.0211 2.69432C73.6021 2.77049 74.2047 2.8495 74.543 2.43593C74.6853 2.26152 74.7742 2.03558 74.863 1.81009C74.9301 1.63929 74.9973 1.46878 75.0874 1.32126C75.2678 1.02712 75.4969 0.759872 75.7797 0.561574C76.2332 0.243097 76.8236 0.129075 77.3513 0.325119C77.9001 0.528674 78.2117 1.0441 78.224 1.61931C78.2327 1.99773 78.1274 2.37299 78.024 2.73323C78.0067 2.79392 77.9806 2.86663 77.9521 2.94655L77.9518 2.9473L77.9516 2.94745C77.8221 3.30874 77.6405 3.81545 77.9728 4.01765C78.0973 4.09337 78.3185 4.10028 78.5088 4.10629ZM74.7831 8.00779C74.8673 7.96738 74.9791 7.96843 75.0593 8.03498C75.7972 8.64775 75.4977 9.71585 74.6946 10.1258C74.0066 10.4767 72.7813 10.4889 72.3566 9.73598C71.9121 8.94805 72.5845 8.03979 73.3897 7.86192C73.7414 7.7841 74.3485 7.81144 74.7831 8.00779ZM80.8854 5.72151C80.3518 5.16357 79.1262 5.23283 78.9051 6.10293C78.7418 6.38926 78.6775 6.75566 78.7585 7.07519C78.9819 7.95731 79.9448 8.33318 80.6769 7.86402C81.3958 7.40343 81.4741 6.33728 80.8854 5.72151ZM76.1157 1.4177C76.2327 0.934279 76.8814 0.895675 77.164 1.20574C77.4757 1.5478 77.4342 2.14014 77.0536 2.39597C76.666 2.65662 76.1563 2.4478 76.038 1.95776C75.9951 1.78035 76.0292 1.57664 76.1157 1.4177Z" fill="#340065"/>
<path id="Vector_41" d="M69.0132 40.4769C70.2055 40.0641 71.1359 39.0149 71.4856 37.8029C71.8329 36.5919 71.6204 35.2465 70.9854 34.1553C70.5737 33.4447 69.976 32.8956 69.2862 32.4675C68.9321 32.2475 68.4641 32.4212 68.3241 32.8139C68.2316 33.0736 68.3111 33.3621 68.5212 33.5407C69.2833 34.1882 69.9201 34.9767 70.2197 35.921C70.616 37.1764 70.2584 38.7329 69.1389 39.4249C68.8265 39.6183 68.4754 39.7369 68.1183 39.8186C67.4483 39.9717 66.7484 39.9962 66.0688 39.8948C65.9217 39.8728 65.7786 39.9532 65.7287 40.0934L65.7213 40.1142C65.6582 40.2906 65.7677 40.4812 65.9516 40.5177C66.9828 40.7225 68.0342 40.8155 69.0132 40.4769ZM68.8066 32.9124C68.8565 32.7729 69.0088 32.7008 69.1466 32.7497C69.2862 32.7996 69.3584 32.9518 69.3087 33.0914C69.2594 33.2293 69.1071 33.3014 68.9677 33.2516C68.8299 33.2025 68.7575 33.0502 68.8066 32.9124ZM69.7513 33.813C69.8005 33.6753 69.9529 33.6029 70.0906 33.6522C70.2302 33.7019 70.3024 33.8542 70.2533 33.992C70.2034 34.1315 70.0517 34.2021 69.9123 34.1524C69.7744 34.1033 69.7015 33.9524 69.7513 33.813ZM70.4693 35.1718C70.5186 35.0341 70.6709 34.9617 70.8103 35.0114C70.9481 35.0607 71.0204 35.2128 70.9712 35.3507C70.9221 35.4885 70.7698 35.5608 70.632 35.5118C70.4925 35.4619 70.4202 35.3096 70.4693 35.1718ZM70.7238 36.954C70.7729 36.8162 70.9253 36.7439 71.0632 36.7931C71.2027 36.8428 71.2748 36.9951 71.2257 37.133C71.176 37.2726 71.0237 37.3447 70.8841 37.295C70.7462 37.2458 70.6741 37.0935 70.7238 36.954ZM70.2775 38.4691C70.3266 38.3312 70.4791 38.259 70.6169 38.3081C70.7564 38.358 70.8287 38.5101 70.7794 38.648C70.7297 38.7876 70.578 38.8582 70.4385 38.8083C70.3006 38.7594 70.2278 38.6087 70.2775 38.4691ZM69.027 39.8087C69.0769 39.6693 69.2268 39.5979 69.3664 39.6478C69.5043 39.6969 69.5772 39.8476 69.5274 39.987C69.4782 40.1249 69.3258 40.197 69.1881 40.148C69.0485 40.0982 68.9779 39.9464 69.027 39.8087ZM67.6008 40.1996C67.6501 40.0618 67.8006 39.989 67.9401 40.0387C68.0779 40.0878 68.1502 40.2401 68.1012 40.378C68.0519 40.5158 67.8996 40.5882 67.7618 40.5389C67.6223 40.4892 67.5517 40.3375 67.6008 40.1996ZM66.2797 40.2311C66.315 40.1323 66.4229 40.0827 66.5198 40.1171C66.6185 40.1522 66.6706 40.2591 66.6353 40.3578C66.6007 40.4546 66.4923 40.5062 66.3936 40.4709C66.2965 40.4365 66.2452 40.328 66.2797 40.2311Z" fill="#340065"/>
<path id="Vector_42" d="M97.7798 27.8667C101.172 23.9511 102.326 18.311 101.081 13.2843C99.8302 8.26607 96.313 3.91885 91.8152 1.34263C88.8932 -0.338689 85.6407 -1.06413 82.3093 -1.17049C80.599 -1.22532 79.292 0.352798 79.6001 2.03607C79.8043 3.14999 80.6787 4.01184 81.793 4.21569C85.8313 4.95315 89.7142 6.44924 92.7172 9.19206C96.7031 12.8424 98.6272 19.1099 96.0677 23.8682C95.3537 25.1975 94.3486 26.3394 93.2469 27.3629C91.179 29.2827 88.741 30.8062 86.1165 31.8406C85.5482 32.0646 85.2046 32.6443 85.3147 33.2454L85.3312 33.3343C85.4696 34.0911 86.2498 34.5442 86.9786 34.2965C91.0653 32.9077 94.994 31.0802 97.7798 27.8667ZM81.5184 1.39611C81.4088 0.797614 81.8021 0.228414 82.3928 0.119801C82.9913 0.010287 83.5607 0.403575 83.6702 1.00207C83.7782 1.59291 83.3849 2.16226 82.787 2.27162C82.196 2.37964 81.6262 1.9865 81.5184 1.39611ZM86.7253 2.65891C86.6173 2.06807 87.0104 1.49827 87.6013 1.39011C88.1998 1.28059 88.7691 1.67403 88.8771 2.26487C88.9865 2.86276 88.592 3.42566 87.9941 3.53502C87.4031 3.64303 86.8347 3.25695 86.7253 2.65891ZM92.0673 6.01599C91.9593 5.42501 92.3525 4.8552 92.9503 4.74584C93.5413 4.63782 94.1107 5.03111 94.2191 5.62195C94.3273 6.21279 93.9339 6.78214 93.3432 6.89075C92.7453 7.00012 92.1753 6.60683 92.0673 6.01599ZM96.6303 11.8302C96.5223 11.2392 96.9154 10.6694 97.5064 10.5614C98.1047 10.4518 98.6741 10.8451 98.7821 11.436C98.8916 12.0345 98.4983 12.6038 97.9004 12.7132C97.309 12.8213 96.7396 12.4281 96.6303 11.8302ZM98.1535 18.1327C98.0454 17.5417 98.4387 16.9719 99.0295 16.8639C99.628 16.7544 100.197 17.1477 100.305 17.7387C100.415 18.337 100.02 18.8995 99.4224 19.0088C98.8315 19.1173 98.2631 18.7312 98.1535 18.1327ZM96.4575 25.4624C96.3481 24.8645 96.7351 24.3031 97.3336 24.1936C97.9245 24.0854 98.4931 24.4716 98.6024 25.0695C98.7104 25.6605 98.3171 26.2299 97.7263 26.3383C97.1278 26.4478 96.5655 26.0532 96.4575 25.4624ZM92.1892 29.78C92.0811 29.1891 92.4668 28.6207 93.0653 28.5112C93.6563 28.4032 94.2255 28.7965 94.3341 29.3873C94.4421 29.9781 94.0489 30.5479 93.4581 30.6561C92.8596 30.7656 92.2973 30.371 92.1892 29.78ZM87.5567 32.6035C87.4794 32.18 87.761 31.7819 88.1762 31.7057C88.5995 31.6279 89.0038 31.901 89.081 32.3239C89.1573 32.7397 88.8773 33.1453 88.4538 33.2225C88.0381 33.2995 87.6325 33.0194 87.5567 32.6035Z" fill="#340065"/>
<path id="Vector_43" d="M51.1611 46.9808C50.5013 47.0158 49.8487 46.7938 49.2751 46.4662C48.478 46.0105 47.7936 45.3314 47.4209 44.4924C47.0482 43.6534 47.0106 42.6514 47.4071 41.8235C47.6967 41.2185 48.1908 40.739 48.6894 40.2904C49.0447 39.9707 49.4133 39.6559 49.8455 39.4516C50.2068 39.2809 50.6066 39.1923 51.0062 39.1944C51.6717 39.198 52.3178 39.451 52.876 39.8133C53.7546 40.3837 54.4701 41.2918 54.5683 42.3347C54.6185 42.8663 54.5066 43.4059 54.293 43.8952C54.1846 44.1434 54.0479 44.3836 53.8545 44.573C53.6172 44.8056 53.3073 44.9498 52.9929 45.0568C52.4419 45.2445 51.847 45.3303 51.2734 45.2313C50.6997 45.1323 50.149 44.8364 49.8056 44.3663C49.462 43.8961 49.3509 43.2468 49.5818 42.7125C49.8128 42.1781 50.4062 41.8044 50.9821 41.8893C51.5581 41.9741 52.0328 42.5564 51.9431 43.1316C51.9131 43.3244 51.8276 43.5183 51.8751 43.7074C51.9463 43.9927 52.3148 44.1263 52.5893 44.0213C52.8639 43.9163 53.0411 43.6406 53.12 43.3576C53.2835 42.7697 53.084 42.1134 52.674 41.6617C52.2642 41.2098 51.6675 40.9526 51.0613 40.8834C50.4957 40.8186 49.9074 40.9117 49.4069 41.1832C48.3161 41.7754 47.86 43.2599 48.3696 44.3767C48.7453 45.2004 49.5537 45.6996 50.4364 45.8007C50.8247 45.8451 51.2163 45.8328 51.6054 45.8055C51.8931 45.7852 52.2821 45.7212 52.4924 45.9833C52.9847 46.5969 51.5133 46.9622 51.1611 46.9808Z" fill="#340065"/>
<path id="Vector_44" d="M65.3391 35.9452C63.4946 36.4144 63.399 32.7869 64.7262 32.0926C66.2202 31.7709 66.8333 35.5652 65.3391 35.9452Z" fill="#340065"/>
<path id="Vector_45" fill-rule="evenodd" clip-rule="evenodd" d="M64.9412 30.2747C65.5946 29.9252 66.3996 30.3311 66.5332 31.06L67.5962 36.8658C67.7417 37.6608 67.0098 38.3493 66.2303 38.1361C65.3465 37.8944 64.5066 37.5359 63.7885 36.9722C62.5019 35.9622 61.7338 34.1272 62.4038 32.635C62.6724 32.037 63.1391 31.5486 63.6475 31.1347C64.0498 30.8069 64.4838 30.5191 64.9412 30.2747ZM63.1547 34.3581C63.1435 33.5491 63.5887 32.0201 64.4703 31.7228C65.3429 31.0494 66.3699 32.2784 66.5908 33.1742C66.8516 34.2305 66.8569 36.1102 65.6099 36.562C64.2361 37.0596 63.1717 35.5823 63.1547 34.3581Z" fill="#340065"/>
<path id="Vector_46" d="M84.8554 28.1388C85.0301 28.0949 85.1949 28.0093 85.3608 27.9381C85.5144 27.872 85.6935 27.7923 85.8131 27.6737C85.9124 27.5753 85.8708 27.3504 85.6952 27.3855C85.5467 27.4154 85.4067 27.4794 85.2619 27.5236C85.1 27.573 84.9503 27.5646 84.7862 27.5871C84.4238 27.6373 84.5183 28.2235 84.8554 28.1388Z" fill="#340065"/>
<path id="Vector_47" d="M89.8538 26.5423C90.0292 26.4675 90.1799 26.3221 90.3277 26.2029C90.4698 26.0883 90.6321 25.9572 90.7308 25.8026C90.8451 25.6237 90.662 25.4122 90.47 25.5284C90.3247 25.6165 90.1972 25.7354 90.0548 25.8295C89.908 25.9264 89.7379 25.9725 89.5924 26.067C89.3334 26.2352 89.5686 26.6638 89.8538 26.5423Z" fill="#340065"/>
<path id="Vector_48" d="M92.3453 24.7134C92.4689 24.5076 92.6131 24.3097 92.7225 24.0963C92.8147 23.9159 92.5886 23.7353 92.431 23.8748C92.2503 24.0347 92.0947 24.2234 91.9257 24.3946C91.6581 24.665 92.1512 25.0367 92.3453 24.7134Z" fill="#340065"/>
<path id="Vector_49" d="M87.3879 27.4149C87.5484 27.3725 87.6948 27.2616 87.8429 27.1822C87.9929 27.1016 88.1487 27.0271 88.2909 26.9326C88.4628 26.8185 88.382 26.5482 88.173 26.6042C88.0115 26.6475 87.8539 26.7153 87.6963 26.774C87.5424 26.8317 87.3616 26.8656 87.2237 26.9577C86.9852 27.1174 87.0965 27.4919 87.3879 27.4149Z" fill="#340065"/>
<path id="Vector_50" d="M95.4605 19.7648C95.593 19.5992 95.6345 19.318 95.6452 19.1065C95.6554 18.9055 95.6625 18.6547 95.5011 18.5158C95.4415 18.4644 95.3339 18.4802 95.2923 18.5473C95.2052 18.6884 95.2373 18.8571 95.2109 19.0186C95.1808 19.2026 95.0775 19.3429 95.0307 19.5158C94.9567 19.7904 95.275 19.9967 95.4605 19.7648Z" fill="#340065"/>
<path id="Vector_51" d="M93.9902 22.7427C94.1568 22.6259 94.2513 22.4367 94.3701 22.2693C94.4933 22.0956 94.6316 21.9254 94.7357 21.7387C94.8459 21.541 94.6095 21.3651 94.4541 21.5083C94.2987 21.6514 94.1652 21.8269 94.0256 21.9875C93.8873 22.1466 93.7402 22.2762 93.6598 22.4762C93.5805 22.6731 93.833 22.8526 93.9902 22.7427Z" fill="#340065"/>
<path id="Vector_52" d="M68.5128 6.30008C68.1541 6.43258 67.7893 6.60609 67.566 6.91646C67.4969 7.0126 67.4416 7.12782 67.4555 7.24545C67.473 7.39312 67.5954 7.50819 67.7276 7.5764C68.0208 7.72752 68.3707 7.70799 68.6972 7.66037C69.0913 7.60299 69.4795 7.5103 69.8653 7.41085C70.3896 7.27565 70.9277 7.11911 71.3443 6.77329C71.5155 6.63118 71.673 6.41771 71.6132 6.20334C71.4834 5.73734 70.6683 5.79007 70.3089 5.86037C69.6992 5.9798 69.0986 6.08361 68.5128 6.30008Z" fill="#340065"/>
<path id="Vector_53" d="M83.6201 38.92C83.7471 38.545 83.9042 38.2107 84.1132 37.8765C84.2574 37.6459 84.0872 37.2851 83.7232 37.0497C82.4111 36.1995 81.0982 35.349 79.7796 34.5039C80.6047 32.9814 81.3988 31.4406 82.1532 29.8739C82.3546 29.4535 82.2894 29.0341 82.0109 28.9391C81.636 28.8122 81.3013 28.656 80.9661 28.4464C80.7364 28.3029 80.3759 28.4721 80.1406 28.8361C79.2396 30.227 78.339 31.6195 77.4442 33.0164C77.1905 33.4126 76.9374 33.8092 76.6848 34.2062C76.243 34.9005 76.4772 35.8244 77.1983 36.221C77.6152 36.4501 78.0333 36.6774 78.4525 36.9021C79.845 37.6512 81.2545 38.3736 82.6854 39.0621C83.1053 39.2646 83.5262 39.1989 83.6201 38.92Z" fill="#340065"/>
<path id="Vector_54" d="M63.9275 11.2056C63.1203 10.7822 62.2343 11.4307 61.9137 12.1638C61.8437 12.3238 62.0333 12.5116 62.1736 12.3643C62.5389 11.9811 63.0494 11.4056 63.6478 11.6843C64.2769 11.9772 64.0145 12.6229 63.9957 13.1359C63.9886 13.3294 64.2547 13.4448 64.3869 13.2978C64.9337 12.6902 64.6214 11.5696 63.9275 11.2056Z" fill="#340065"/>
<path id="Vector_55" d="M73.9283 39.1797C72.8978 39.5441 72.6682 40.6699 72.7206 41.6536C72.7668 42.5197 72.9933 43.5436 72.3288 44.2442C71.7319 44.8737 70.817 45.0301 69.9921 45.0708C68.9631 45.1216 67.1166 44.7609 66.4992 45.864C65.9383 46.8661 66.4121 48.2058 67.1958 48.9193C67.2877 49.0029 67.4369 48.897 67.3713 48.7839C67.0372 48.2084 66.8106 47.5325 66.8616 46.8592C66.9463 45.7408 67.962 45.7493 68.8379 45.7399C69.9203 45.7282 71.0327 45.7874 72.0257 45.2763C72.8615 44.8462 73.3776 44.1074 73.4503 43.1644C73.5391 42.0122 72.9394 40.4258 74.1234 39.6422C74.3495 39.4928 74.2133 39.0789 73.9283 39.1797Z" fill="#340065"/>
<path id="Vector_56" d="M62.1007 7.68744C62.101 7.68744 62.1012 7.68744 62.1016 7.68729C62.6774 7.54878 63.2148 7.73881 63.5644 7.92284C63.8705 8.08388 64.1328 8.28654 64.3866 8.48258C64.515 8.58203 64.6365 8.67577 64.7611 8.76245C65.1467 9.03105 65.4718 9.14988 65.7544 9.12539C65.9537 9.10812 66.1778 9.01348 66.4397 8.83576C67.0714 8.40717 67.5581 7.77382 67.81 7.05273L68.7036 7.3628C68.3843 8.27632 67.7678 9.07837 66.9677 9.62128C66.5678 9.89259 66.1957 10.04 65.8311 10.0714C65.3199 10.1154 64.7923 9.94262 64.2186 9.54317C64.0748 9.44312 63.9383 9.33766 63.8064 9.23566C63.5743 9.05629 63.3551 8.88698 63.1212 8.76395C62.8298 8.61057 62.5445 8.55604 62.3182 8.61042L62.3178 8.61057C62.1577 8.64918 61.9854 8.74953 61.7911 8.91763C61.4561 9.20712 61.1806 9.57441 60.889 9.9632C60.525 10.4484 60.1487 10.95 59.6258 11.3333C58.6256 12.0658 57.2131 12.1852 56.1109 11.6304C55.9006 11.5246 55.7065 11.3998 55.5189 11.2792C55.1798 11.061 54.8594 10.8549 54.5328 10.8264C54.0472 10.7837 53.5711 11.1371 53.2571 11.441C53.1061 11.5871 52.9634 11.7443 52.8123 11.9107C52.5329 12.2184 52.244 12.5367 51.8844 12.7998L51.3284 12.0341C51.61 11.8278 51.8546 11.5584 52.1134 11.2733C52.2682 11.103 52.428 10.9269 52.6012 10.7594C53.2558 10.126 53.9539 9.82229 54.6198 9.88058C55.1779 9.92955 55.632 10.2214 56.0327 10.4791C56.2077 10.5916 56.3726 10.6978 56.5389 10.7815C57.3326 11.1808 58.3496 11.0948 59.0698 10.5674C59.4784 10.268 59.7966 9.84377 60.1335 9.3946C60.4427 8.98253 60.7622 8.55634 61.1749 8.19955C61.4869 7.93005 61.7899 7.7624 62.1007 7.68744Z" fill="#340065"/>
</g>
</g>
</g>
<path id="Vector_57" d="M0.00415039 61.0615H3.58627C3.64291 61.4123 3.80695 61.7179 4.07871 61.9782C4.35032 62.2386 4.71251 62.4423 5.16514 62.5895C5.62919 62.7253 6.17255 62.7932 6.79493 62.7932C7.65512 62.7932 8.33429 62.6856 8.83229 62.4707C9.33029 62.2443 9.57921 61.916 9.57921 61.4859C9.57921 61.1577 9.4377 60.9031 9.15482 60.7219C8.8718 60.5409 8.32858 60.4108 7.52503 60.3314L5.14817 60.1108C3.39383 59.9523 2.12067 59.5561 1.32839 58.9223C0.536098 58.2773 0.139955 57.4114 0.139955 56.3249C0.139955 55.4421 0.394587 54.6951 0.904001 54.0839C1.42453 53.4728 2.14892 53.0144 3.07701 52.7087C4.01637 52.3919 5.10866 52.2334 6.35357 52.2334C7.57596 52.2334 8.66253 52.4089 9.61316 52.7596C10.5639 53.0993 11.3166 53.5859 11.8712 54.2197C12.4371 54.8535 12.7427 55.5891 12.7879 56.4268H9.22272C9.17751 56.1212 9.03029 55.8609 8.78136 55.6458C8.54356 55.4194 8.21546 55.2496 7.79664 55.1365C7.37781 55.012 6.87425 54.9498 6.28567 54.9498C5.49338 54.9498 4.86529 55.0572 4.40125 55.2723C3.9372 55.476 3.7051 55.7816 3.7051 56.1891C3.7051 56.4833 3.8409 56.7211 4.11266 56.9021C4.39554 57.0831 4.89924 57.2077 5.62363 57.2756L8.15312 57.5302C9.36424 57.6435 10.3318 57.8415 11.0562 58.1245C11.7806 58.3961 12.3068 58.7753 12.6351 59.262C12.9633 59.7486 13.1274 60.3541 13.1274 61.0785C13.1274 61.9727 12.8615 62.7535 12.3295 63.4213C11.7976 64.0778 11.0505 64.5927 10.0885 64.9662C9.12658 65.3284 8.00605 65.5096 6.72703 65.5096C5.41421 65.5096 4.25402 65.3284 3.24676 64.9662C2.25077 64.5927 1.4699 64.0721 0.904001 63.4043C0.338102 62.7253 0.0381013 61.9443 0.00415039 61.0615Z" fill="#340065"/>
<path id="Vector_58" d="M29.0305 59.9071C28.9059 61.0276 28.5212 62.0122 27.876 62.8611C27.2309 63.6986 26.382 64.3494 25.3295 64.8134C24.2882 65.2775 23.0885 65.5096 21.7303 65.5096C20.2477 65.5096 18.9517 65.2322 17.8426 64.6776C16.7335 64.123 15.8676 63.3478 15.245 62.3518C14.6339 61.3558 14.3284 60.1956 14.3284 58.8714C14.3284 57.5472 14.6339 56.3871 15.245 55.3911C15.8676 54.3951 16.7335 53.6198 17.8426 53.0653C18.9517 52.5107 20.2477 52.2334 21.7303 52.2334C23.0885 52.2334 24.2882 52.4653 25.3295 52.9294C26.382 53.3934 27.2309 54.0499 27.876 54.8988C28.5212 55.7363 28.9059 56.7154 29.0305 57.8359H25.4993C25.386 57.2925 25.1653 56.8342 24.8371 56.4607C24.509 56.0759 24.0789 55.7816 23.5469 55.5779C23.0263 55.3742 22.4207 55.2723 21.7303 55.2723C20.9381 55.2723 20.2533 55.4194 19.6761 55.7137C19.0989 55.9967 18.6574 56.4098 18.3519 56.953C18.0463 57.485 17.8935 58.1245 17.8935 58.8714C17.8935 59.6185 18.0463 60.2635 18.3519 60.8069C18.6574 61.3389 19.0989 61.7518 19.6761 62.0461C20.2533 62.3291 20.9381 62.4707 21.7303 62.4707C22.4207 62.4707 23.0263 62.3744 23.5469 62.1819C24.0789 61.9896 24.509 61.7009 24.8371 61.3162C25.1653 60.9313 25.386 60.4617 25.4993 59.9071H29.0305Z" fill="#340065"/>
<path id="Vector_59" d="M30.7385 52.5059H34.2529V65.2387H30.7385V52.5059ZM40.7551 52.5059H44.2863V65.2387H40.7551V52.5059ZM32.708 57.2085H42.2151V60.3323H32.708V57.2085Z" fill="#340065"/>
<path id="Vector_60" d="M53.0785 65.5096C51.5731 65.5096 50.249 65.2322 49.1058 64.6776C47.974 64.123 47.0911 63.3478 46.4573 62.3518C45.835 61.3558 45.5237 60.1956 45.5237 58.8714C45.5237 57.5472 45.835 56.3871 46.4573 55.3911C47.0911 54.3951 47.974 53.6198 49.1058 53.0653C50.249 52.5107 51.5731 52.2334 53.0785 52.2334C54.595 52.2334 68.2752 52.5107 69.4071 53.0653C70.5389 53.6198 71.4216 54.3951 72.0554 55.3911C72.6892 56.3871 73.0062 57.5472 73.0062 58.8714C73.0062 60.1956 72.6892 61.3558 72.0554 62.3518C71.4216 63.3478 70.5389 64.123 69.4071 64.6776C68.2752 65.2322 54.595 65.5096 53.0785 65.5096ZM53.0785 62.3688C53.9048 62.3688 66.9736 62.2273 67.5735 61.9443C68.1733 61.6614 68.6318 61.2595 68.9486 60.7389C69.2769 60.2183 69.4411 59.5958 69.4411 58.8714C69.4411 58.147 69.2769 57.5246 68.9486 57.004C68.6318 56.4833 68.1733 56.0816 67.5735 55.7985C66.9736 55.5157 53.9048 55.3742 53.0785 55.3742C52.2635 55.3742 51.5561 55.5157 50.9563 55.7985C50.3564 56.0816 49.8924 56.4833 49.5641 57.004C49.236 57.5246 49.0719 58.147 49.0719 58.8714C49.0719 59.5958 49.236 60.2183 49.5641 60.7389C49.8924 61.2595 50.3564 61.6614 50.9563 61.9443C51.5561 62.2273 52.2635 62.3688 53.0785 62.3688Z" fill="#340065"/>
<path id="Vector_61" d="M81.4613 65.5096C79.9559 65.5096 78.6317 65.2322 77.4886 64.6776C76.3568 64.123 75.4739 63.3478 74.8401 62.3518C74.2178 61.3558 73.9065 60.1956 73.9065 58.8714C73.9065 57.5472 74.2178 56.3871 74.8401 55.3911C75.4739 54.3951 76.3568 53.6198 77.4886 53.0653C78.6317 52.5107 79.9559 52.2334 81.4613 52.2334C82.9778 52.2334 84.3021 52.5107 85.4339 53.0653C86.5657 53.6198 87.4485 54.3951 88.0823 55.3911C88.7161 56.3871 89.033 57.5472 89.033 58.8714C89.033 60.1956 88.7161 61.3558 88.0823 62.3518C87.4485 63.3478 86.5657 64.123 85.4339 64.6776C84.3021 65.2322 82.9778 65.5096 81.4613 65.5096ZM81.4613 62.3688C82.2874 62.3688 83.0005 62.2273 83.6004 61.9443C84.2002 61.6614 84.6586 61.2595 84.9755 60.7389C85.3038 60.2183 85.4678 59.5958 85.4678 58.8714C85.4678 58.147 85.3038 57.5246 84.9755 57.004C84.6586 56.4833 84.2002 56.0816 83.6004 55.7985C83.0005 55.5157 82.2874 55.3742 81.4613 55.3742C80.6463 55.3742 79.9389 55.5157 79.3391 55.7985C78.7392 56.0816 78.2752 56.4833 77.947 57.004C77.6187 57.5246 77.4547 58.147 77.4547 58.8714C77.4547 59.5958 77.6187 60.2183 77.947 60.7389C78.2752 61.2595 78.7392 61.6614 79.3391 61.9443C79.9389 62.2273 80.6463 62.3688 81.4613 62.3688Z" fill="#340065"/>
<path id="Vector_62" d="M94.3621 52.5059V63.6768L92.7833 62.1149H102.307V65.2387H90.8479V52.5059H94.3621Z" fill="#340065"/>
</g>
</svg>
