<svg width="64" height="54" viewBox="0 0 64 54" fill="none" xmlns="http://www.w3.org/2000/svg">
<path d="M21.2442 0.000244141L0.000732422 46.6634L5.08559 53.0659H39.843L64.0007 0.000244141H21.2442Z" fill="#E18DD8"/>
<path d="M0.735107 46.9189H7.48159L5.00193 52.364L0.735107 46.9189Z" fill="#340065"/>
<path d="M5.06597 52.9053L0.153076 46.6353H7.91979L5.06597 52.9053ZM1.31506 47.2023L4.93814 51.8247L7.04367 47.2023H1.31506Z" fill="#E18DD8"/>
<path d="M39.447 43.8142H6.40698L23.1977 6.93274H56.2377L39.447 43.8142ZM7.86645 42.8893H38.8311L54.7806 7.85536H23.8159L7.86645 42.8893Z" fill="#340065"/>
<path d="M53.166 12.5385H21.1648L21.5854 11.6135H53.5866L53.166 12.5385Z" fill="#340065"/>
<path d="M50.7441 17.8576H18.7429L19.1635 16.9326H51.1647L50.7441 17.8576Z" fill="#340065"/>
<path d="M48.3245 23.1771H16.321L16.744 22.2522H48.7452L48.3245 23.1771Z" fill="#340065"/>
<path d="M45.9066 28.4968H13.9031L14.3237 27.5742H46.3272L45.9066 28.4968Z" fill="#340065"/>
<path d="M43.4808 33.8161H11.4773L11.8979 32.8934H43.9014L43.4808 33.8161Z" fill="#340065"/>
<path d="M41.0628 39.1361H9.05933L9.47998 38.2135H41.4835L41.0628 39.1361Z" fill="#340065"/>
<path d="M14.9591 43.3521H13.9226L30.2927 7.39551H31.3292L14.9591 43.3521Z" fill="#340065"/>
<path d="M32.0999 15.5451H29.8875L30.3081 14.6201H32.5205L32.0999 15.5451Z" fill="#340065"/>
<path d="M42.4844 10.2228H32.3054L32.726 9.29785H42.9051L42.4844 10.2228Z" fill="#340065"/>
<path d="M36.0827 15.5449H33.8679L34.2885 14.62H36.5033L36.0827 15.5449Z" fill="#340065"/>
<path d="M27.3929 25.8942H25.1804L25.6011 24.9716H27.8135L27.3929 25.8942Z" fill="#340065"/>
<path d="M37.7758 20.5724H27.5945L28.0151 19.6475H38.1965L37.7758 20.5724Z" fill="#340065"/>
<path d="M31.3694 25.8943H29.157L29.5776 24.9717H31.79L31.3694 25.8943Z" fill="#340065"/>
<path d="M22.5436 36.5409H20.3289L20.7495 35.616H22.9642L22.5436 36.5409Z" fill="#340065"/>
<path d="M32.9399 31.2189H22.7585L23.1792 30.2939H33.3605L32.9399 31.2189Z" fill="#340065"/>
<path d="M26.5297 36.5409H24.3173L24.7379 35.616H26.9503L26.5297 36.5409Z" fill="#340065"/>
</svg>
