<svg width="127" height="24" viewBox="0 0 127 24" fill="none" xmlns="http://www.w3.org/2000/svg">
<path d="M1.00873 8.00024H2.59273V17.0002H1.00873V8.00024ZM13.4264 16.0402L12.7784 16.1122V8.00024H14.3144V17.0002H12.2984L5.98639 8.88824L6.62239 8.81624V17.0002H5.08639V8.00024H7.15039L13.4264 16.0402ZM16.2527 14.0722H17.8607C17.9087 14.4322 18.0567 14.7482 18.3047 15.0202C18.5607 15.2922 18.8967 15.5042 19.3127 15.6562C19.7287 15.8002 20.2087 15.8722 20.7527 15.8722C21.5607 15.8722 22.2007 15.7482 22.6727 15.5002C23.1447 15.2442 23.3807 14.9002 23.3807 14.4682C23.3807 14.1162 23.2447 13.8522 22.9727 13.6762C22.7007 13.5002 22.2087 13.3682 21.4967 13.2802L19.5527 13.0282C18.4647 12.8842 17.6727 12.6162 17.1767 12.2242C16.6887 11.8242 16.4447 11.2602 16.4447 10.5322C16.4447 9.98024 16.6087 9.50424 16.9367 9.10424C17.2727 8.69624 17.7447 8.38424 18.3527 8.16824C18.9607 7.94424 19.6727 7.83224 20.4887 7.83224C21.2967 7.83224 22.0127 7.95224 22.6367 8.19224C23.2607 8.43224 23.7567 8.76824 24.1247 9.20024C24.5007 9.62424 24.7047 10.1242 24.7367 10.7002H23.1287C23.0887 10.3802 22.9527 10.1042 22.7207 9.87224C22.4967 9.64024 22.1927 9.46024 21.8087 9.33224C21.4247 9.19624 20.9727 9.12824 20.4527 9.12824C19.7167 9.12824 19.1287 9.24824 18.6887 9.48824C18.2487 9.72824 18.0287 10.0562 18.0287 10.4722C18.0287 10.7922 18.1567 11.0402 18.4127 11.2162C18.6767 11.3842 19.1327 11.5122 19.7807 11.6002L21.7487 11.8762C22.5567 11.9882 23.1927 12.1402 23.6567 12.3322C24.1287 12.5162 24.4647 12.7682 24.6647 13.0882C24.8647 13.4002 24.9647 13.8042 24.9647 14.3002C24.9647 14.8762 24.7887 15.3802 24.4367 15.8122C24.0847 16.2442 23.5887 16.5802 22.9487 16.8202C22.3167 17.0522 21.5767 17.1682 20.7287 17.1682C19.8647 17.1682 19.1007 17.0402 18.4367 16.7842C17.7807 16.5202 17.2607 16.1562 16.8767 15.6922C16.4927 15.2282 16.2847 14.6882 16.2527 14.0722ZM29.4582 8.73224H31.0422V17.0002H29.4582V8.73224ZM25.7382 8.00024H34.7622V9.39224H25.7382V8.00024ZM36.074 14.9362V13.6282H42.362V14.9362H36.074ZM40.25 8.00024L44.57 17.0002H42.878L38.954 8.60024H39.566L35.642 17.0002H33.95L38.27 8.00024H40.25ZM54.6668 13.0882C54.6588 13.6482 54.5508 14.1762 54.3428 14.6722C54.1348 15.1602 53.8388 15.5922 53.4548 15.9682C53.0708 16.3442 52.6028 16.6402 52.0508 16.8562C51.5068 17.0642 50.8828 17.1682 50.1788 17.1682C49.4668 17.1682 48.8068 17.0602 48.1988 16.8442C47.5908 16.6282 47.0588 16.3202 46.6028 15.9202C46.1548 15.5122 45.8068 15.0202 45.5588 14.4442C45.3108 13.8682 45.1868 13.2202 45.1868 12.5002C45.1868 11.7802 45.3108 11.1322 45.5588 10.5562C45.8148 9.98024 46.1708 9.49224 46.6268 9.09224C47.0828 8.68424 47.6188 8.37224 48.2348 8.15624C48.8508 7.94024 49.5268 7.83224 50.2628 7.83224C51.1828 7.83224 51.9868 7.98424 52.6748 8.28824C53.3708 8.58424 53.9308 8.99224 54.3548 9.51224C54.7788 10.0322 55.0388 10.6282 55.1348 11.3002H53.5268C53.4388 10.8762 53.2468 10.5082 52.9508 10.1962C52.6628 9.88424 52.2908 9.64424 51.8348 9.47624C51.3788 9.30824 50.8508 9.22424 50.2508 9.22424C49.5468 9.22424 48.9348 9.35624 48.4148 9.62024C47.9028 9.87624 47.5028 10.2482 47.2148 10.7362C46.9348 11.2242 46.7948 11.8122 46.7948 12.5002C46.7948 13.1882 46.9388 13.7802 47.2268 14.2762C47.5228 14.7722 47.9388 15.1522 48.4748 15.4162C49.0108 15.6802 49.6428 15.8122 50.3708 15.8122C51.0748 15.8122 51.6908 15.6922 52.2188 15.4522C52.7468 15.2122 53.1628 14.8802 53.4668 14.4562C53.7708 14.0242 53.9348 13.5242 53.9588 12.9562L54.6668 13.0882ZM50.6828 13.7722V12.5722H55.2308V17.0002H54.0548L53.8628 13.2682L54.2348 13.7722H50.6828ZM58.5943 12.0562H62.2543C62.7823 12.0562 63.1983 11.9362 63.5023 11.6962C63.8143 11.4562 63.9703 11.1282 63.9703 10.7122C63.9703 10.2882 63.8143 9.96024 63.5023 9.72824C63.1983 9.48824 62.7823 9.36824 62.2543 9.36824H58.3663L59.0743 8.48024V17.0002H57.4903V8.00024H62.3983C63.0303 8.00024 63.5823 8.11624 64.0543 8.34824C64.5343 8.57224 64.9063 8.88824 65.1703 9.29624C65.4423 9.69624 65.5783 10.1682 65.5783 10.7122C65.5783 11.2402 65.4423 11.7082 65.1703 12.1162C64.9063 12.5162 64.5343 12.8322 64.0543 13.0642C63.5823 13.2882 63.0303 13.4002 62.3983 13.4002H58.5943V12.0562ZM60.3703 12.7882H62.2303L65.8063 17.0002H63.9103L60.3703 12.7882ZM68.6859 14.9362V13.6282H74.9739V14.9362H68.6859ZM72.8619 8.00024L77.1819 17.0002H75.4899L71.5659 8.60024H72.1779L68.2539 17.0002H66.5619L70.8819 8.00024H72.8619ZM90.8669 8.00024V17.0002H89.3549V8.48024L89.8469 8.50424L85.6589 17.0002H83.9669L79.7789 8.51624L80.2709 8.49224V17.0002H78.7589V8.00024H81.1829L85.2149 16.3162H84.4229L88.4429 8.00024H90.8669Z" fill="#641FA4"/>
<rect x="103.001" y="0.000244141" width="24" height="24" rx="12" fill="#340065"/>
<path d="M115.001 6.00024C113.372 6.00024 113.167 6.00737 112.527 6.03649C111.889 6.06574 111.453 6.16687 111.071 6.31525C110.676 6.4685 110.342 6.6735 110.008 7.00713C109.674 7.34063 109.469 7.67539 109.316 8.06989C109.167 8.45152 109.066 8.88765 109.037 9.52616C109.008 10.1662 109.001 10.3708 109.001 12.0003C109.001 13.6298 109.008 13.8337 109.037 14.4737C109.066 15.1125 109.167 15.5485 109.316 15.93C109.469 16.3246 109.674 16.6594 110.008 16.9929C110.341 17.3266 110.676 17.5321 111.07 17.6854C111.452 17.8337 111.888 17.9349 112.527 17.9641C113.167 17.9932 113.371 18.0004 115.001 18.0004C116.63 18.0004 116.834 17.9932 117.474 17.9641C118.113 17.9349 118.549 17.8337 118.931 17.6854C119.326 17.5321 119.66 17.3266 119.993 16.9929C120.327 16.6594 120.532 16.3246 120.686 15.9301C120.833 15.5485 120.934 15.1123 120.964 14.4738C120.993 13.8338 121.001 13.6298 121.001 12.0003C121.001 10.3708 120.993 10.1663 120.964 9.52628C120.934 8.88752 120.833 8.45152 120.686 8.07002C120.532 7.67539 120.327 7.34063 119.993 7.00713C119.659 6.67338 119.326 6.46837 118.931 6.31525C118.548 6.16687 118.112 6.06574 117.473 6.03649C116.833 6.00737 116.629 6.00024 114.999 6.00024H115.001ZM114.463 7.08151C114.623 7.08126 114.801 7.08151 115.001 7.08151C116.603 7.08151 116.793 7.08726 117.426 7.11601C118.011 7.14276 118.328 7.24051 118.54 7.32263C118.82 7.43138 119.019 7.56139 119.229 7.77139C119.439 7.98139 119.569 8.18139 119.678 8.46139C119.76 8.67265 119.858 8.99015 119.885 9.57516C119.914 10.2077 119.92 10.3977 119.92 11.9989C119.92 13.6002 119.914 13.7902 119.885 14.4227C119.858 15.0077 119.76 15.3252 119.678 15.5365C119.57 15.8165 119.439 16.0158 119.229 16.2257C119.019 16.4357 118.82 16.5657 118.54 16.6745C118.329 16.757 118.011 16.8545 117.426 16.8812C116.793 16.91 116.603 16.9162 115.001 16.9162C113.399 16.9162 113.209 16.91 112.577 16.8812C111.992 16.8542 111.674 16.7565 111.463 16.6744C111.183 16.5656 110.983 16.4356 110.773 16.2256C110.563 16.0156 110.433 15.8161 110.324 15.536C110.241 15.3247 110.144 15.0072 110.117 14.4222C110.088 13.7897 110.082 13.5997 110.082 11.9974C110.082 10.3952 110.088 10.2062 110.117 9.57366C110.144 8.98865 110.241 8.67115 110.324 8.45964C110.432 8.17964 110.563 7.97964 110.773 7.76964C110.983 7.55964 111.183 7.42963 111.463 7.32063C111.674 7.23813 111.992 7.14063 112.577 7.11376C113.13 7.08876 113.345 7.08126 114.463 7.08001V7.08151ZM118.204 8.07777C117.807 8.07777 117.484 8.39989 117.484 8.79752C117.484 9.19503 117.807 9.51753 118.204 9.51753C118.602 9.51753 118.924 9.19503 118.924 8.79752C118.924 8.40002 118.602 8.07752 118.204 8.07752V8.07777ZM115.001 8.91902C113.3 8.91902 111.92 10.2987 111.92 12.0003C111.92 13.7019 113.3 15.081 115.001 15.081C116.703 15.081 118.082 13.7019 118.082 12.0003C118.082 10.2987 116.703 8.91902 115.001 8.91902H115.001ZM115.001 10.0003C116.106 10.0003 117.001 10.8957 117.001 12.0003C117.001 13.1048 116.106 14.0003 115.001 14.0003C113.897 14.0003 113.001 13.1048 113.001 12.0003C113.001 10.8957 113.897 10.0003 115.001 10.0003Z" fill="#641FA4"/>
</svg>
