<svg width="127" height="24" viewBox="0 0 127 24" fill="none" xmlns="http://www.w3.org/2000/svg">
<path d="M3.91273 8.73224H5.49673V17.0002H3.91273V8.73224ZM0.192729 8.00024H9.21673V9.39224H0.192729V8.00024ZM18.0869 11.8402V13.1602H11.7989V11.8402H18.0869ZM12.8429 12.5002L12.2069 16.5202L11.4509 15.6322H18.4349V17.0002H10.5869L11.3069 12.5002L10.5869 8.00024H18.3749V9.36824H11.4509L12.2069 8.48024L12.8429 12.5002ZM22.1504 8.00024V16.2922L21.4424 15.6082H28.2224V17.0002H20.5664V8.00024H22.1504ZM37.0938 11.8402V13.1602H30.8058V11.8402H37.0938ZM31.8498 12.5002L31.2138 16.5202L30.4578 15.6322H37.4418V17.0002H29.5938L30.3138 12.5002L29.5938 8.00024H37.3818V9.36824H30.4578L31.2138 8.48024L31.8498 12.5002ZM48.4329 13.0882C48.4249 13.6482 48.3169 14.1762 48.1089 14.6722C47.9009 15.1602 47.6049 15.5922 47.2209 15.9682C46.8369 16.3442 46.3689 16.6402 45.8169 16.8562C45.2729 17.0642 44.6489 17.1682 43.9449 17.1682C43.2329 17.1682 42.5729 17.0602 41.9649 16.8442C41.3569 16.6282 40.8249 16.3202 40.3689 15.9202C39.9209 15.5122 39.5729 15.0202 39.3249 14.4442C39.0769 13.8682 38.9529 13.2202 38.9529 12.5002C38.9529 11.7802 39.0769 11.1322 39.3249 10.5562C39.5809 9.98024 39.9369 9.49224 40.3929 9.09224C40.8489 8.68424 41.3849 8.37224 42.0009 8.15624C42.6169 7.94024 43.2929 7.83224 44.0289 7.83224C44.9489 7.83224 45.7529 7.98424 46.4409 8.28824C47.1369 8.58424 47.6969 8.99224 48.1209 9.51224C48.5449 10.0322 48.8049 10.6282 48.9009 11.3002H47.2929C47.2049 10.8762 47.0129 10.5082 46.7169 10.1962C46.4289 9.88424 46.0569 9.64424 45.6009 9.47624C45.1449 9.30824 44.6169 9.22424 44.0169 9.22424C43.3129 9.22424 42.7009 9.35624 42.1809 9.62024C41.6689 9.87624 41.2689 10.2482 40.9809 10.7362C40.7009 11.2242 40.5609 11.8122 40.5609 12.5002C40.5609 13.1882 40.7049 13.7802 40.9929 14.2762C41.2889 14.7722 41.7049 15.1522 42.2409 15.4162C42.7769 15.6802 43.4089 15.8122 44.1369 15.8122C44.8409 15.8122 45.4569 15.6922 45.9849 15.4522C46.5129 15.2122 46.9289 14.8802 47.2329 14.4562C47.5369 14.0242 47.7009 13.5242 47.7249 12.9562L48.4329 13.0882ZM44.4489 13.7722V12.5722H48.9969V17.0002H47.8209L47.6289 13.2682L48.0009 13.7722H44.4489ZM52.3604 12.0562H56.0204C56.5484 12.0562 56.9644 11.9362 57.2684 11.6962C57.5804 11.4562 57.7364 11.1282 57.7364 10.7122C57.7364 10.2882 57.5804 9.96024 57.2684 9.72824C56.9644 9.48824 56.5484 9.36824 56.0204 9.36824H52.1324L52.8404 8.48024V17.0002H51.2564V8.00024H56.1644C56.7964 8.00024 57.3484 8.11624 57.8204 8.34824C58.3004 8.57224 58.6724 8.88824 58.9364 9.29624C59.2084 9.69624 59.3444 10.1682 59.3444 10.7122C59.3444 11.2402 59.2084 11.7082 58.9364 12.1162C58.6724 12.5162 58.3004 12.8322 57.8204 13.0642C57.3484 13.2882 56.7964 13.4002 56.1644 13.4002H52.3604V12.0562ZM54.1364 12.7882H55.9964L59.5724 17.0002H57.6764L54.1364 12.7882ZM62.452 14.9362V13.6282H68.74V14.9362H62.452ZM66.628 8.00024L70.948 17.0002H69.256L65.332 8.60024H65.944L62.02 17.0002H60.328L64.648 8.00024H66.628ZM84.633 8.00024V17.0002H83.121V8.48024L83.613 8.50424L79.425 17.0002H77.733L73.545 8.51624L74.037 8.49224V17.0002H72.525V8.00024H74.949L78.981 16.3162H78.189L82.209 8.00024H84.633Z" fill="#641FA4"/>
<rect x="103.001" y="0.000244141" width="24" height="24" rx="12" fill="#340065"/>
<path d="M113.709 13.5908L113.511 16.3827C113.795 16.3827 113.918 16.2608 114.065 16.1143L115.397 14.8418L118.156 16.8622C118.662 17.1442 119.018 16.9957 119.155 16.3967L120.966 7.91093L120.966 7.91043C121.127 7.16244 120.696 6.86995 120.203 7.05345L109.558 11.1289C108.831 11.4109 108.842 11.8158 109.434 11.9993L112.156 12.8458L118.477 8.89041C118.775 8.69341 119.045 8.80241 118.823 8.9994L113.709 13.5908Z" fill="#641FA4"/>
</svg>
