<svg width="548" height="52" viewBox="0 0 548 52" fill="none" xmlns="http://www.w3.org/2000/svg">
<path d="M11.8835 49.9756H0.674316L0.674317 2.13583L32.3831 2.13583C45.4773 2.13583 51.368 9.8756 51.368 18.316C51.368 25.4552 47.6989 29.959 41.337 32.0607L51.8392 49.9756H39.351L29.6902 33.4952H11.8835V49.9756ZM32.3831 11.7772H11.8835V24.8547H32.3831C38.2065 24.8547 40.0242 21.7855 40.0242 18.316C40.0242 14.8464 38.2065 11.7772 32.3831 11.7772Z" fill="#EAEFFF"/>
<path d="M71.8811 21.1516H106.215V30.4594H71.8811V40.3343H107.999V49.9756L60.6719 49.9756V2.13583L107.663 2.13583V11.7772L71.8811 11.7772V21.1516Z" fill="#EAEFFF"/>
<path d="M163.756 5.63875L158.269 13.512C158.269 13.512 151.57 10.4427 140.53 10.4427C132.249 10.4427 128.782 12.1775 128.782 15.0799C128.782 18.316 133.023 19.3168 142.145 21.0849C157.798 24.1208 165.237 27.3902 165.237 36.6979C165.237 46.3393 156.081 51.3101 140.53 51.3101C123.463 51.3101 115.486 45.6387 115.486 45.6387L120.972 37.7655C120.972 37.7655 128.681 41.6687 140.53 41.6687C149.652 41.6687 153.893 39.8339 153.893 36.6979C153.893 33.4952 150.594 32.9615 140.025 30.8264C123.026 27.3902 117.438 23.1867 117.438 15.0799C117.438 7.7405 122.958 0.801391 140.53 0.801392C157.225 0.801392 163.756 5.63875 163.756 5.63875Z" fill="#EAEFFF"/>
<path d="M204.768 11.7772L184.605 11.7772V25.989H204.768C210.188 25.989 212.813 23.3535 212.813 18.8831C212.813 14.4127 210.188 11.7772 204.768 11.7772ZM184.605 49.9756H173.396V2.13584L204.768 2.13584C216.685 2.13584 224.157 8.20755 224.157 18.8831C224.157 29.5586 216.685 35.6304 204.768 35.6304H184.605V49.9756Z" fill="#EAEFFF"/>
<path d="M259.515 51.3101C240.395 51.3101 233.663 42.2692 233.663 28.2576V2.13584L244.872 2.13584V28.2576C244.872 36.8647 248.003 41.6687 259.515 41.6687C271.027 41.6687 274.158 36.8647 274.158 28.2576L274.158 2.13584L285.367 2.13584V28.2576C285.367 42.2692 278.634 51.3101 259.515 51.3101Z" fill="#EAEFFF"/>
<path d="M326.952 49.9756H295.546V2.13584L326.413 2.13584C341.561 2.13584 344.725 8.64125 344.725 14.9131C344.725 20.2175 341.695 23.6871 337.151 24.9882C343.143 26.3226 346.441 29.9923 346.441 35.6304C346.441 42.4027 342.234 49.9756 326.952 49.9756ZM306.755 40.7012H326.682C333.179 40.7012 334.997 38.8664 334.997 35.2967C334.997 31.6938 333.179 29.8923 326.682 29.8923H306.755V40.7012ZM306.755 20.9181H326.682C331.934 20.9181 333.415 18.8831 333.415 16.1809C333.415 13.4786 331.934 11.4436 326.682 11.4436H306.755V20.9181Z" fill="#EAEFFF"/>
<path d="M366.483 2.13584V40.3343H400.077V49.9756H355.274V2.13584L366.483 2.13584Z" fill="#EAEFFF"/>
<path d="M408.943 49.9756V2.13584L420.153 2.13584V49.9756H408.943Z" fill="#EAEFFF"/>
<path d="M441.575 22.8197L466.854 2.13584L481.564 2.13584L456.655 22.5195L481.564 49.9756L467.729 49.9756L448.711 29.0249L441.575 34.8631V49.9756H430.365V2.13584L441.575 2.13584V22.8197Z" fill="#EAEFFF"/>
<path d="M535.301 49.9756L530.184 40.6012H502.784L497.667 49.9756H485.718L511.872 2.13584L521.096 2.13584L547.25 49.9756H535.301ZM516.484 15.4803L507.867 31.2934H525.101L516.484 15.4803Z" fill="#EAEFFF"/>
</svg>
