<svg width="128" height="66" viewBox="0 0 128 66" fill="none" xmlns="http://www.w3.org/2000/svg">
<g id="sso">
<path id="Vector" d="M31.3974 23.5023C31.3974 27.5987 28.0765 30.9196 23.9801 30.9196C19.8836 30.9196 16.5627 27.5987 16.5627 23.5023C16.5627 19.4058 19.8836 16.085 23.9801 16.085C28.0765 16.085 31.3974 19.4058 31.3974 23.5023Z" fill="#340065"/>
<path id="Vector_2" fill-rule="evenodd" clip-rule="evenodd" d="M110.139 35.9847C120.005 35.9847 128.003 27.9863 128.003 18.1198C128.003 8.25326 120.005 0.254883 110.139 0.254883C100.272 0.254883 92.2737 8.25326 92.2737 18.1198C92.2737 27.9863 100.272 35.9847 110.139 35.9847ZM110.184 27.9342C115.629 27.9342 120.043 23.5199 120.043 18.0746C120.043 12.6292 115.629 8.21494 110.184 8.21494C104.738 8.21494 100.324 12.6292 100.324 18.0746C100.324 23.5199 104.738 27.9342 110.184 27.9342Z" fill="#340065"/>
<path id="Vector_3" d="M94.7971 39.1504H125.552V47.2009H94.7971V39.1504Z" fill="#340065"/>
<path id="Vector_4" d="M23.9304 47.2011C10.9665 47.2011 0.457275 36.6918 0.457275 23.728C0.457275 10.7641 10.9665 0.254883 23.9304 0.254883C30.8619 0.254883 37.0916 3.25928 41.3885 8.03688L35.3805 13.3678C32.5667 10.2587 28.4993 8.3054 23.9756 8.3054C15.483 8.3054 8.59824 15.1901 8.59824 23.6828C8.59824 32.1754 15.483 39.0601 23.9756 39.0601C28.4799 39.0601 32.532 37.1235 35.3444 34.0374L41.3885 39.4191C37.0916 44.1967 30.8619 47.2011 23.9304 47.2011Z" fill="#340065"/>
<path id="Vector_5" d="M67.7546 47.2011C54.7908 47.2011 44.2815 36.6918 44.2815 23.728C44.2815 10.7641 54.7908 0.254883 67.7546 0.254883C74.6861 0.254883 80.9158 3.25928 85.2127 8.03688L79.2047 13.3678C76.3909 10.2587 72.3235 8.30539 67.7998 8.30539C59.3072 8.30539 52.4225 15.1901 52.4225 23.6828C52.4225 32.1754 59.3072 39.0601 67.7998 39.0601C72.3041 39.0601 76.3562 37.1235 79.1686 34.0374L85.2127 39.4191C80.9158 44.1967 74.6861 47.2011 67.7546 47.2011Z" fill="#340065"/>
<path id="Vector_6" d="M68.0228 13.1518C68.0634 13.1923 68.077 13.7034 68.077 15.1728C68.077 17.1298 68.0766 17.1401 67.9787 17.2443C67.8486 17.3827 67.7916 17.3764 67.6501 17.2081L67.5315 17.0672L67.5442 15.1466C67.5564 13.3053 67.5606 13.2233 67.6447 13.1617C67.752 13.0833 67.9491 13.0782 68.0228 13.1518Z" fill="#340065"/>
<path id="Vector_7" d="M67.3419 13.9202C67.382 13.9604 67.3962 14.3903 67.3962 15.5742V17.174L67.6068 17.4129L67.8174 17.6518L68.0126 17.4481L68.2077 17.2445L68.2285 15.7927C68.2399 14.9941 68.2505 14.2452 68.2523 14.1281C68.2553 13.9229 68.2608 13.9143 68.409 13.8865C68.495 13.8703 68.6044 13.8801 68.6578 13.9087C68.7522 13.9591 68.753 13.9747 68.753 15.8313C68.753 17.4615 68.7592 17.7868 68.5997 17.9569C68.5535 18.0063 68.4933 18.0426 68.415 18.0938C68.276 18.1848 68.2008 18.2061 68.0971 18.1835C68.0225 18.1672 67.8352 18.1569 67.6809 18.1605C67.3529 18.1682 67.1812 18.0948 67.014 17.8757L66.8987 17.7243V15.8426C66.8987 14.0983 66.9045 13.9575 66.9778 13.9148C67.0862 13.8517 67.2761 13.8545 67.3419 13.9202Z" fill="#340065"/>
<path id="Vector_8" d="M72.9079 27.391C72.9147 27.8466 72.9027 28.2369 72.8812 28.2584C72.8395 28.3 62.8491 28.3093 62.7818 28.2678C62.7481 28.247 62.7204 26.5957 62.7532 26.5643C62.7799 26.5389 72.7232 26.5099 72.8051 26.5351C72.8906 26.5613 72.8962 26.6078 72.9079 27.391Z" fill="#340065"/>
<path id="Vector_9" d="M72.0908 28.5341C72.1576 28.6145 72.1697 32.7899 72.1037 32.9622C71.9696 33.3113 71.0683 33.3937 70.7398 33.0868L70.6057 32.9616V30.7726C70.6057 29.1304 70.6192 28.5701 70.6599 28.5294C70.7397 28.4496 72.0242 28.4538 72.0908 28.5341Z" fill="#340065"/>
<path id="Vector_10" d="M68.6209 28.5214C68.7059 28.5669 68.7084 28.6444 68.7084 31.2057C68.7084 32.8743 68.6915 33.8913 68.6625 33.9743C68.6372 34.0464 68.5495 34.1513 68.4674 34.2072C68.3352 34.2975 68.2624 34.309 67.8228 34.309C67.3737 34.309 67.3123 34.2987 67.1669 34.2C67.0605 34.1277 66.9891 34.0324 66.955 33.9173C66.919 33.7959 66.9045 32.981 66.9067 31.2109C66.9093 29.1168 66.9208 28.6605 66.9735 28.5764C67.0353 28.4775 67.0583 28.4746 67.7852 28.4746C68.2145 28.4746 68.5707 28.4945 68.6209 28.5214Z" fill="#340065"/>
<path id="Vector_11" d="M64.9907 28.5338C65.0574 28.6142 65.0694 32.7888 65.0035 32.9611C64.9192 33.1812 64.756 33.2462 64.298 33.2424C63.977 33.2397 63.8594 33.2204 63.7582 33.1541C63.514 32.9941 63.5105 32.96 63.5083 30.7347C63.5064 28.9767 63.5159 28.6687 63.5747 28.5791C63.641 28.478 63.664 28.4746 64.2924 28.4746C64.7722 28.4746 64.9545 28.4901 64.9907 28.5338Z" fill="#340065"/>
<path id="Vector_12" fill-rule="evenodd" clip-rule="evenodd" d="M71.6512 18.2141C71.6549 18.2062 71.6588 18.1972 71.6628 18.1868C71.6745 18.1561 71.6707 18.1215 71.6551 18.1025L71.6512 18.2141ZM71.6066 18.2253L71.6064 18.121C71.6034 18.1318 71.6018 18.145 71.6018 18.16C71.6018 18.1836 71.6029 18.2026 71.6052 18.217C71.6056 18.2199 71.6061 18.2228 71.6066 18.2253Z" fill="#340065"/>
<path id="Vector_13" d="M72.0596 15.9034C71.9107 15.8237 71.7869 15.8487 71.7318 15.9696L71.6576 18.103C71.6732 18.122 71.677 18.1565 71.6653 18.1872C71.6613 18.1976 71.6574 18.2066 71.6537 18.2145L71.6435 18.5089C71.6484 18.66 71.6229 18.7249 71.5117 18.8438L71.3738 18.9913L71.1951 18.8169L71.0164 18.6423V17.3368C71.0164 16.5235 70.9987 15.9985 70.9695 15.944C70.9064 15.826 70.674 15.826 70.6109 15.944C70.5851 15.9921 70.5616 16.2313 70.5588 16.4754L70.6162 19.1401C70.7373 19.3974 70.9972 19.5419 71.2254 19.479C71.3344 19.4489 71.4194 19.4484 71.4742 19.4776C71.6016 19.5458 71.7904 19.48 71.9766 19.3024L72.1018 18.7963L72.1755 16.5937C72.1599 16.5779 72.1471 16.4268 72.1471 16.2576C72.1471 15.9999 72.1328 15.9426 72.0596 15.9034Z" fill="#340065"/>
<path id="Vector_14" d="M71.606 15.7431C71.606 15.4642 71.5899 15.3878 71.5156 15.3135C71.4014 15.1993 71.3134 15.199 71.2003 15.312C71.1146 15.3978 71.1116 15.4629 71.1212 17.0344C71.1306 18.5927 71.1351 18.6705 71.2189 18.7318C71.2672 18.7671 71.3335 18.796 71.3663 18.796C71.457 18.796 71.5801 18.6309 71.6113 18.4674L71.6108 18.2254C71.6103 18.2229 71.6098 18.2201 71.6094 18.2171C71.6071 18.2027 71.606 18.1837 71.606 18.1601C71.606 18.1451 71.6077 18.1319 71.6107 18.1211L71.606 15.7613C71.606 15.7553 71.606 15.7493 71.606 15.7431Z" fill="#340065"/>
<path id="Vector_15" fill-rule="evenodd" clip-rule="evenodd" d="M64.5174 15.3281C64.536 15.3572 64.5514 16.1184 64.5518 17.0195L64.5524 18.658L64.4414 18.7308C64.3241 18.8076 64.2525 18.7879 64.1541 18.6515L64.0436 18.434C64.0623 18.434 64.0764 17.7878 64.0751 16.998C64.0725 15.5748 64.0902 15.3321 64.2012 15.2594C64.272 15.213 64.4718 15.2565 64.5174 15.3281ZM64.0097 17.2198V18.6172C64.0097 18.6827 64.2484 18.9767 64.3016 18.9767C64.3253 18.9767 64.4118 18.9117 64.4938 18.8322L64.6429 18.6876V17.3545C64.6429 16.1775 64.6516 16.0117 64.7178 15.9387C64.8072 15.8399 64.9728 15.8308 65.0473 15.9206C65.0768 15.956 65.1074 16.1341 65.1153 16.3163L65.1178 16.3753C65.123 16.4957 65.1162 16.5726 65.1122 16.6175C65.1091 16.6529 65.1077 16.6686 65.1153 16.6701L65.0363 19.1804C64.9402 19.382 64.6318 19.5495 64.4821 19.4813C64.4259 19.4557 64.2711 19.4457 64.1382 19.4593C63.9072 19.4828 63.8892 19.4766 63.727 19.3185C63.6337 19.2276 63.5574 19.1237 63.5574 19.0876L63.5566 19.0747L63.5122 16.3479C63.5122 15.9143 63.7001 15.7254 63.927 15.9308C64.0033 15.9998 64.0097 16.101 64.0097 17.2198ZM65.1501 19.0646C65.1643 19.112 65.1613 19.2342 65.1431 19.4359C65.1416 19.4522 65.0506 19.5182 64.9409 19.5825C64.8312 19.6468 64.6423 19.8105 64.5213 19.9463L64.3012 20.1933L64.1767 19.9962C64.1011 19.8768 63.9367 19.7228 63.7595 19.6055C63.4749 19.4169 63.4669 19.4065 63.4669 19.2169C63.4669 19.1096 63.4775 18.9905 63.4775 18.9905L63.4669 18.434C63.4627 18.4503 63.4653 18.433 63.4653 18.433C63.4653 18.433 63.4775 18.3527 63.4775 18.2983C63.4541 18.1082 63.4519 18.0561 63.4583 18.063L63.4295 16.564C63.3295 16.4735 63.1353 16.4662 63.0654 16.5504C63.0306 16.5924 63.013 17.0458 63.0095 17.9981C63.0048 19.2786 62.9979 19.3928 62.92 19.4919C62.7186 19.7479 62.7245 20.0433 62.9385 20.435L63.031 20.6043L62.9314 20.7105C62.8078 20.8419 62.7363 21.0793 62.7734 21.2342C62.7889 21.2985 62.8617 21.4606 62.9354 21.5945L63.0692 21.8378L62.9558 21.9337C62.7178 22.1348 62.6974 22.3555 62.8798 22.7532C62.9647 22.9382 63.2109 23.1966 63.433 23.3341L63.5574 23.4111V24.7472C63.5574 25.5817 63.575 26.1162 63.6043 26.1709C63.6472 26.2511 63.7043 26.2583 64.294 26.2576C64.6476 26.2573 64.9648 26.2393 64.9989 26.2177C65.0485 26.1863 65.0641 25.9045 65.0777 24.805C65.093 23.5707 65.1025 23.427 65.1717 23.3864C65.3583 23.2767 65.6871 22.9319 65.7717 22.7572C65.9166 22.458 65.8959 22.2232 65.7059 22.013L65.5477 21.838L65.6477 21.7108C65.7028 21.6408 65.782 21.4827 65.8237 21.3595C65.9176 21.0821 65.8766 20.901 65.6827 20.7361C65.5562 20.6283 65.5509 20.6131 65.62 20.5558C65.7311 20.4635 65.864 20.1245 65.864 19.9333C65.864 19.8294 65.8209 19.7031 65.7494 19.5979L65.6348 19.4291L65.6296 18.0429C65.6249 16.7443 65.6191 16.6513 65.5385 16.5706C65.4426 16.4747 65.2921 16.4944 65.1969 16.6155L65.1501 19.0646ZM64.3012 20.7105C64.2288 20.8395 64.1408 20.8922 63.9645 20.9215C64.108 21.0229 64.1888 21.1741 64.2763 21.3379C64.2845 21.3534 64.2928 21.369 64.3012 21.3846C64.3632 21.213 64.4322 21.0349 64.5976 20.9215C64.4093 20.8839 64.3395 20.8203 64.3012 20.7105ZM63.9645 22.013C64.1408 21.9837 64.2288 21.9311 64.3012 21.802C64.3395 21.9118 64.4093 21.9754 64.5976 22.013C64.4322 22.1265 64.3632 22.3046 64.3012 22.4762C64.2928 22.4606 64.2845 22.4449 64.2763 22.4295C64.1888 22.2657 64.108 22.1144 63.9645 22.013Z" fill="#340065"/>
<path id="Vector_16" fill-rule="evenodd" clip-rule="evenodd" d="M66.6894 14.684L66.8087 14.7777V16.4665V18.1552L67.0045 18.25C67.2205 18.3546 67.7131 18.8105 67.7131 18.9059C67.7131 18.9391 67.7424 18.9906 67.7782 19.0202C67.8311 19.0641 67.8556 19.0504 67.9093 18.9466C68.0246 18.7242 68.3773 18.4077 68.6766 18.2582L68.8213 18.1859L68.8439 16.4542C68.8631 14.9811 68.8767 14.7162 68.9344 14.6798C69.0255 14.6221 69.1326 14.6248 69.2714 14.688L69.3866 14.7404V16.4456V18.1508L69.5223 18.3216C69.6352 18.4636 69.658 18.5332 69.658 18.7363C69.658 18.9878 69.5153 19.3493 69.3676 19.4719C69.269 19.5537 69.2781 19.6043 69.4017 19.6607C69.7698 19.8284 69.7201 20.5363 69.3098 20.9742L69.1974 21.094L69.3355 21.1244C69.5547 21.1725 69.6756 21.4088 69.6462 21.7318C69.6333 21.8746 69.5818 22.072 69.5316 22.1703C69.4289 22.3715 69.0659 22.7295 68.8528 22.8397L68.7118 22.9126L68.7097 24.5518C68.7079 26.0352 68.7004 26.1966 68.6314 26.2477C68.5262 26.3257 67.0762 26.3277 66.9985 26.25C66.9583 26.2097 66.9444 25.7674 66.9444 24.5396V22.8836L66.7649 22.7828C66.3636 22.5572 66.0326 22.1113 65.9695 21.7113C65.9292 21.4554 66.039 21.2048 66.2192 21.142C66.3895 21.0826 66.3905 21.0319 66.2258 20.8066C66.0396 20.5522 65.9362 20.2183 65.9711 19.9849C65.993 19.8389 66.0384 19.7618 66.1639 19.6585C66.3158 19.5333 66.3227 19.5172 66.257 19.4425C66.0925 19.2556 65.9768 18.9529 65.9751 18.7055C65.9737 18.5029 65.9963 18.4263 66.0953 18.2965L66.2172 18.1367L66.2395 16.4484C66.2595 14.9429 66.2702 14.7509 66.3388 14.6752C66.4383 14.5652 66.5416 14.5678 66.6894 14.684ZM67.8179 19.6993C67.7453 19.8284 67.6574 19.881 67.4811 19.9103C67.6246 20.0117 67.7054 20.163 67.7928 20.3268C67.8011 20.3422 67.8095 20.3578 67.8179 20.3734C67.8797 20.2019 67.9488 20.0238 68.1143 19.9103C67.926 19.8727 67.8561 19.8091 67.8179 19.6993ZM67.4811 21.2952C67.6574 21.2658 67.7453 21.2131 67.8179 21.0841C67.8561 21.1939 67.926 21.2575 68.1143 21.2952C67.9488 21.4086 67.8797 21.5867 67.8179 21.7583C67.8095 21.7427 67.8011 21.727 67.7928 21.7116C67.7054 21.5478 67.6246 21.3965 67.4811 21.2952Z" fill="#340065"/>
<path id="Vector_17" fill-rule="evenodd" clip-rule="evenodd" d="M72.6039 16.5794C72.4961 16.4717 72.4301 16.4663 72.3033 16.5552L72.1763 19.167C72.1908 19.1814 72.1889 19.2616 72.1723 19.345C72.148 19.4666 72.0886 19.5312 71.8725 19.6715C71.7244 19.7677 71.5511 19.925 71.4875 20.0211L71.3717 20.196L71.2462 20.0228C71.1203 19.849 70.7499 19.5192 70.6806 19.5192C70.5664 19.5192 70.5004 19.3794 70.5169 19.1722L70.5341 18.9555L70.5293 17.8499L70.5269 17.2971L70.5245 16.7443C70.4852 16.5411 70.4162 16.4835 70.2311 16.4997C70.1319 16.5085 70.0891 16.5408 70.0661 16.6246C70.0489 16.6868 70.0329 17.3453 70.0304 18.088L70.0259 19.4382L69.9128 19.5727C69.7511 19.7648 69.7592 20.0533 69.9353 20.3726L70.0691 20.6154L69.9344 20.7413C69.8225 20.8459 69.7998 20.9024 69.7998 21.0766C69.7998 21.2791 69.9636 21.6915 70.0702 21.7574C70.1392 21.8001 70.1257 21.9163 70.0518 21.9163C70.0162 21.9163 69.9449 21.9699 69.8935 22.0354C69.6693 22.3203 69.8677 22.8999 70.2973 23.2153C70.4092 23.2974 70.5262 23.3855 70.5573 23.4111C70.6003 23.4464 70.6139 23.7871 70.6139 24.8304C70.6139 26.0405 70.6223 26.2065 70.6853 26.2306C70.7247 26.2457 71.0387 26.2581 71.3831 26.2581C71.8922 26.2581 72.0227 26.2448 72.0805 26.187C72.1419 26.1256 72.1516 25.9335 72.1516 24.7719V23.4279L72.3857 23.2703C72.5668 23.1484 72.6538 23.0464 72.7698 22.8197C72.9721 22.4248 72.9703 22.2405 72.7622 22.0323C72.5869 21.8572 72.5738 21.8165 72.6678 21.7386C72.7711 21.6528 72.9205 21.2964 72.9205 21.1354C72.9205 20.9857 72.8314 20.8114 72.7012 20.7062C72.6386 20.6556 72.6469 20.618 72.7756 20.367C72.9504 20.0262 72.9583 19.8414 72.8074 19.6193L72.6943 19.453V18.0614C72.6943 16.7301 72.6903 16.6659 72.6039 16.5794ZM71.3784 20.7102C71.3058 20.8393 71.2179 20.892 71.0416 20.9213C71.1852 21.0227 71.2659 21.1739 71.3533 21.3377L71.3538 21.3385C71.3619 21.3537 71.3701 21.369 71.3784 21.3844C71.4402 21.2128 71.5093 21.0347 71.6748 20.9213C71.4865 20.8836 71.4165 20.82 71.3784 20.7102ZM71.0416 22.0488C71.2179 22.0195 71.3058 21.9668 71.3784 21.8378C71.4165 21.9476 71.4865 22.0112 71.6748 22.0488C71.5093 22.1622 71.4402 22.3403 71.3784 22.5119C71.37 22.4963 71.3616 22.4807 71.3533 22.4652C71.2659 22.3014 71.1852 22.1501 71.0416 22.0488Z" fill="#340065"/>
<path id="Vector_18" d="M4.53567 58.0542C4.18531 58.0542 3.86027 57.9993 3.56056 57.8896C3.26507 57.7756 3.00758 57.6152 2.78807 57.4084C2.57279 57.2015 2.40394 56.9588 2.28152 56.6802C2.15911 56.3973 2.0979 56.0871 2.0979 55.7494C2.0979 55.4117 2.15911 55.1036 2.28152 54.825C2.40394 54.5421 2.57279 54.2973 2.78807 54.0905C3.00758 53.8836 3.26507 53.7253 3.56056 53.6156C3.86027 53.5016 4.18531 53.4446 4.53567 53.4446C4.94513 53.4446 5.31026 53.5163 5.63108 53.6599C5.95611 53.8034 6.22627 54.0102 6.44156 54.2804L5.64374 55.0022C5.50022 54.8334 5.34192 54.7046 5.16885 54.616C5 54.5274 4.81004 54.483 4.59899 54.483C4.41747 54.483 4.25073 54.5126 4.09877 54.5717C3.9468 54.6307 3.81594 54.7173 3.70619 54.8313C3.60066 54.941 3.51624 55.074 3.45292 55.2302C3.39382 55.3864 3.36427 55.5595 3.36427 55.7494C3.36427 55.9394 3.39382 56.1124 3.45292 56.2686C3.51624 56.4248 3.60066 56.5599 3.70619 56.6739C3.81594 56.7836 3.9468 56.8681 4.09877 56.9271C4.25073 56.9862 4.41747 57.0158 4.59899 57.0158C4.81004 57.0158 5 56.9715 5.16885 56.8828C5.34192 56.7942 5.50022 56.6654 5.64374 56.4966L6.44156 57.2184C6.22627 57.4843 5.95611 57.6912 5.63108 57.8389C5.31026 57.9825 4.94513 58.0542 4.53567 58.0542ZM8.16031 55.2492H10.2182V56.1863H8.16031V55.2492ZM8.24896 56.9968H10.5664V57.9656H7.00792V53.5333H10.4841V54.502H8.24896V56.9968ZM14.244 53.5333H15.4977V57.9656H14.244V53.5333ZM12.5344 57.9656H11.2807V53.5333H12.5344V57.9656ZM14.3326 56.237H12.4457V55.1985H14.3326V56.237ZM16.0068 57.9656L17.9633 53.5333H19.198L21.1609 57.9656H19.8566L18.3242 54.1474H18.8181L17.2858 57.9656H16.0068ZM17.0769 57.1044L17.3998 56.18H19.5653L19.8882 57.1044H17.0769ZM22.4277 57.9656V54.2488L22.7063 54.5274H21.0664V53.5333H25.0175V54.5274H23.3839L23.6625 54.2488V57.9656H22.4277ZM29.5972 58.0542C29.2469 58.0542 28.9218 57.9993 28.6221 57.8896C28.3266 57.7756 28.0692 57.6152 27.8496 57.4084C27.6343 57.2015 27.4655 56.9588 27.3431 56.6802C27.2207 56.3973 27.1595 56.0871 27.1595 55.7494C27.1595 55.4117 27.2207 55.1036 27.3431 54.825C27.4655 54.5421 27.6343 54.2973 27.8496 54.0905C28.0692 53.8836 28.3266 53.7253 28.6221 53.6156C28.9218 53.5016 29.2469 53.4446 29.5972 53.4446C30.0067 53.4446 30.3718 53.5163 30.6926 53.6599C31.0176 53.8034 31.2878 54.0102 31.5031 54.2804L30.7053 55.0022C30.5617 54.8334 30.4034 54.7046 30.2304 54.616C30.0615 54.5274 29.8716 54.483 29.6605 54.483C29.479 54.483 29.3123 54.5126 29.1603 54.5717C29.0084 54.6307 28.8775 54.7173 28.7677 54.8313C28.6622 54.941 28.5778 55.074 28.5145 55.2302C28.4554 55.3864 28.4258 55.5595 28.4258 55.7494C28.4258 55.9394 28.4554 56.1124 28.5145 56.2686C28.5778 56.4248 28.6622 56.5599 28.7677 56.6739C28.8775 56.7836 29.0084 56.8681 29.1603 56.9271C29.3123 56.9862 29.479 57.0158 29.6605 57.0158C29.8716 57.0158 30.0615 56.9715 30.2304 56.8828C30.4034 56.7942 30.5617 56.6654 30.7053 56.4966L31.5031 57.2184C31.2878 57.4843 31.0176 57.6912 30.6926 57.8389C30.3718 57.9825 30.0067 58.0542 29.5972 58.0542ZM33.0138 57.9656V54.2488L33.2924 54.5274H31.6525V53.5333H35.6035V54.5274H33.9699L34.2485 54.2488V57.9656H33.0138ZM36.243 56.9715C36.4921 57.0432 36.6947 57.0664 36.8509 57.0411C37.0113 57.0115 37.1528 56.9061 37.2751 56.7245L37.4904 56.4079L37.5981 56.2876L38.9784 53.5333H40.2005L38.3642 56.9588C38.1827 57.2965 37.9653 57.5582 37.712 57.7439C37.463 57.9296 37.1886 58.0352 36.8889 58.0605C36.5892 58.0859 36.2747 58.031 35.9455 57.8959L36.243 56.9715ZM37.5791 57.2944L35.5529 53.5333H36.8762L38.2629 56.4079L37.5791 57.2944ZM43.4475 57.421V54.5274H42.1748L42.1558 55.0086C42.1474 55.2661 42.1305 55.5067 42.1052 55.7304C42.0841 55.9541 42.0524 56.1589 42.0102 56.3446C41.9722 56.5303 41.9195 56.6908 41.8519 56.8258C41.7886 56.9567 41.7105 57.058 41.6176 57.1298L40.2816 56.9715C40.4294 56.9757 40.5497 56.9271 40.6425 56.8258C40.7397 56.7203 40.8157 56.5746 40.8705 56.3889C40.9296 56.2032 40.9718 55.9837 40.9971 55.7304C41.0267 55.4771 41.0478 55.2006 41.0604 54.9009L41.1111 53.5333H44.6822V57.421H43.4475ZM40.1486 58.8583V56.9715H45.2838V58.8583H44.1377V57.9656H41.301V58.8583H40.1486ZM47.0357 55.2492H49.0936V56.1863H47.0357V55.2492ZM47.1244 56.9968H49.4418V57.9656H45.8833V53.5333H49.3595V54.502H47.1244V56.9968ZM53.1194 53.5333H54.3731V57.9656H53.1194V53.5333ZM51.4098 57.9656H50.1561V53.5333H51.4098V57.9656ZM53.208 56.237H51.3211V55.1985H53.208V56.237ZM56.3069 57.9656V54.2488L56.5855 54.5274H54.9456V53.5333H58.8966V54.5274H57.263L57.5416 54.2488V57.9656H56.3069ZM61.5719 58.0542C61.2215 58.0542 60.8965 57.9993 60.5967 57.8896C60.3013 57.7756 60.0438 57.6152 59.8243 57.4084C59.609 57.2015 59.4402 56.9588 59.3177 56.6802C59.1953 56.3973 59.1341 56.0871 59.1341 55.7494C59.1341 55.4117 59.1953 55.1036 59.3177 54.825C59.4402 54.5421 59.609 54.2973 59.8243 54.0905C60.0438 53.8836 60.3013 53.7253 60.5967 53.6156C60.8965 53.5016 61.2215 53.4446 61.5719 53.4446C61.9813 53.4446 62.3465 53.5163 62.6673 53.6599C62.9924 53.8034 63.2625 54.0102 63.4777 54.2804L62.6799 55.0022C62.5365 54.8334 62.3782 54.7046 62.205 54.616C62.0363 54.5274 61.8463 54.483 61.6352 54.483C61.4537 54.483 61.2869 54.5126 61.135 54.5717C60.983 54.6307 60.8522 54.7173 60.7424 54.8313C60.6369 54.941 60.5524 55.074 60.4891 55.2302C60.43 55.3864 60.4005 55.5595 60.4005 55.7494C60.4005 55.9394 60.43 56.1124 60.4891 56.2686C60.5524 56.4248 60.6369 56.5599 60.7424 56.6739C60.8522 56.7836 60.983 56.8681 61.135 56.9271C61.2869 56.9862 61.4537 57.0158 61.6352 57.0158C61.8463 57.0158 62.0363 56.9715 62.205 56.8828C62.3782 56.7942 62.5365 56.6654 62.6799 56.4966L63.4777 57.2184C63.2625 57.4843 62.9924 57.6912 62.6673 57.8389C62.3465 57.9825 61.9813 58.0542 61.5719 58.0542ZM66.3047 54.9453C66.8449 54.9453 67.2628 55.0656 67.5584 55.3062C67.858 55.5468 68.0079 55.9077 68.0079 56.3889C68.0079 56.9081 67.8411 57.3007 67.5077 57.5667C67.1742 57.8326 66.7183 57.9656 66.14 57.9656H64.0442V53.5333H65.2789V54.9453H66.3047ZM66.0577 57.0664C66.2687 57.0664 66.4355 57.0094 66.5579 56.8955C66.6846 56.7815 66.7479 56.6211 66.7479 56.4142C66.7479 56.2032 66.6846 56.0554 66.5579 55.971C66.4355 55.8824 66.2687 55.8381 66.0577 55.8381H65.2789V57.0664H66.0577ZM71.4372 57.9656L70.1898 55.857L71.1966 55.2619L72.8492 57.9656H71.4372ZM68.6132 57.9656V53.5333H69.8605V57.9656H68.6132ZM69.4996 56.2686V55.2555H71.1079V56.2686H69.4996ZM71.3169 55.8824L70.1581 55.7557L71.5195 53.5333H72.8365L71.3169 55.8824ZM75.4047 58.0542C75.0501 58.0542 74.723 57.9972 74.4233 57.8832C74.1236 57.7693 73.8619 57.6089 73.6381 57.402C73.4187 57.191 73.2477 56.9461 73.1252 56.6675C73.0029 56.3889 72.9416 56.0829 72.9416 55.7494C72.9416 55.4159 73.0029 55.1099 73.1252 54.8313C73.2477 54.5527 73.4187 54.31 73.6381 54.1031C73.8619 53.8921 74.1236 53.7295 74.4233 53.6156C74.723 53.5016 75.0501 53.4446 75.4047 53.4446C75.7635 53.4446 76.0907 53.5016 76.3862 53.6156C76.6859 53.7295 76.9455 53.8921 77.165 54.1031C77.3845 54.31 77.5555 54.5527 77.6778 54.8313C77.8045 55.1099 77.8678 55.4159 77.8678 55.7494C77.8678 56.0829 77.8045 56.391 77.6778 56.6739C77.5555 56.9525 77.3845 57.1952 77.165 57.402C76.9455 57.6089 76.6859 57.7693 76.3862 57.8832C76.0907 57.9972 75.7635 58.0542 75.4047 58.0542ZM75.4047 57.0158C75.5736 57.0158 75.7298 56.9862 75.8733 56.9271C76.0211 56.8681 76.1477 56.7836 76.2532 56.6739C76.363 56.5599 76.4474 56.4248 76.5065 56.2686C76.5698 56.1124 76.6014 55.9394 76.6014 55.7494C76.6014 55.5552 76.5698 55.3822 76.5065 55.2302C76.4474 55.074 76.363 54.941 76.2532 54.8313C76.1477 54.7173 76.0211 54.6307 75.8733 54.5717C75.7298 54.5126 75.5736 54.483 75.4047 54.483C75.2359 54.483 75.0776 54.5126 74.9298 54.5717C74.7864 54.6307 74.6597 54.7173 74.5499 54.8313C74.4444 54.941 74.36 55.074 74.2966 55.2302C74.2376 55.3822 74.208 55.5552 74.208 55.7494C74.208 55.9394 74.2376 56.1124 74.2966 56.2686C74.36 56.4248 74.4444 56.5599 74.5499 56.6739C74.6597 56.7836 74.7864 56.8681 74.9298 56.9271C75.0776 56.9862 75.2359 57.0158 75.4047 57.0158ZM78.5065 57.9656V53.5333H79.7602V57.9656H78.5065ZM79.8045 53.1787C79.6652 53.1787 79.547 53.1343 79.45 53.0457C79.3529 52.9528 79.3043 52.8325 79.3043 52.6848C79.3043 52.5371 79.3529 52.4168 79.45 52.3239C79.547 52.231 79.6652 52.1846 79.8045 52.1846C79.9481 52.1846 80.0684 52.231 80.1655 52.3239C80.2625 52.4168 80.3111 52.5371 80.3111 52.6848C80.3111 52.8325 80.2625 52.9528 80.1655 53.0457C80.0684 53.1343 79.9481 53.1787 79.8045 53.1787ZM78.4622 53.1787C78.3229 53.1787 78.2047 53.1343 78.1076 53.0457C78.0105 52.9528 77.962 52.8325 77.962 52.6848C77.962 52.5371 78.0105 52.4168 78.1076 52.3239C78.2047 52.231 78.3229 52.1846 78.4622 52.1846C78.6057 52.1846 78.7261 52.231 78.8231 52.3239C78.9202 52.4168 78.9687 52.5371 78.9687 52.6848C78.9687 52.8325 78.9202 52.9528 78.8231 53.0457C78.7261 53.1343 78.6057 53.1787 78.4622 53.1787ZM84.7047 58.0542C84.3501 58.0542 84.0229 57.9972 83.7232 57.8832C83.4235 57.7693 83.1618 57.6089 82.9381 57.402C82.7186 57.191 82.5476 56.9461 82.4252 56.6675C82.3027 56.3889 82.2416 56.0829 82.2416 55.7494C82.2416 55.4159 82.3027 55.1099 82.4252 54.8313C82.5476 54.5527 82.7186 54.31 82.9381 54.1031C83.1618 53.8921 83.4235 53.7295 83.7232 53.6156C84.0229 53.5016 84.3501 53.4446 84.7047 53.4446C85.0634 53.4446 85.3906 53.5016 85.6861 53.6156C85.9858 53.7295 86.2454 53.8921 86.4649 54.1031C86.6844 54.31 86.8553 54.5527 86.9778 54.8313C87.1045 55.1099 87.1678 55.4159 87.1678 55.7494C87.1678 56.0829 87.1045 56.391 86.9778 56.6739C86.8553 56.9525 86.6844 57.1952 86.4649 57.402C86.2454 57.6089 85.9858 57.7693 85.6861 57.8832C85.3906 57.9972 85.0634 58.0542 84.7047 58.0542ZM84.7047 57.0158C84.8735 57.0158 85.0297 56.9862 85.1732 56.9271C85.321 56.8681 85.4476 56.7836 85.5531 56.6739C85.6629 56.5599 85.7473 56.4248 85.8064 56.2686C85.8697 56.1124 85.9014 55.9394 85.9014 55.7494C85.9014 55.5552 85.8697 55.3822 85.8064 55.2302C85.7473 55.074 85.6629 54.941 85.5531 54.8313C85.4476 54.7173 85.321 54.6307 85.1732 54.5717C85.0297 54.5126 84.8735 54.483 84.7047 54.483C84.5358 54.483 84.3775 54.5126 84.2298 54.5717C84.0862 54.6307 83.9596 54.7173 83.8499 54.8313C83.7443 54.941 83.6599 55.074 83.5966 55.2302C83.5374 55.3822 83.508 55.5552 83.508 55.7494C83.508 55.9394 83.5374 56.1124 83.5966 56.2686C83.6599 56.4248 83.7443 56.5599 83.8499 56.6739C83.9596 56.7836 84.0862 56.8681 84.2298 56.9271C84.3775 56.9862 84.5358 57.0158 84.7047 57.0158ZM87.8381 57.9656V53.5333H89.8642C90.2695 53.5333 90.6177 53.5987 90.909 53.7295C91.2046 53.8604 91.4326 54.0504 91.5927 54.2994C91.7537 54.5443 91.8333 54.8355 91.8333 55.1732C91.8333 55.5067 91.7537 55.7958 91.5927 56.0407C91.4326 56.2855 91.2046 56.4755 90.909 56.6105C90.6177 56.7414 90.2695 56.8068 89.8642 56.8068H88.5346L89.0918 56.2623V57.9656H87.8381ZM89.0918 56.3953L88.5346 55.8191H89.7883C90.05 55.8191 90.2442 55.7621 90.3708 55.6481C90.5017 55.5341 90.5671 55.3758 90.5671 55.1732C90.5671 54.9663 90.5017 54.806 90.3708 54.692C90.2442 54.578 90.05 54.521 89.7883 54.521H88.5346L89.0918 53.9448V56.3953ZM92.4013 57.9656V53.5333H95.6496L95.6432 54.5274H93.3574L93.636 54.2488V57.9656H92.4013ZM94.8952 57.9656L96.8517 53.5333H98.0864L100.049 57.9656H98.7449L97.2126 54.1474H97.7065L96.1742 57.9656H94.8952ZM95.9653 57.1044L96.2882 56.18H98.4537L98.7766 57.1044H95.9653ZM103.521 53.5333H104.775V57.9656H103.521V53.5333ZM101.811 57.9656H100.558V53.5333H101.811V57.9656ZM103.61 56.237H101.723V55.1985H103.61V56.237ZM105.727 57.9656V53.5333H106.962V57.9656H105.727ZM107.555 57.6236L107.929 56.7435C108.119 56.8406 108.317 56.9145 108.524 56.9651C108.73 57.0158 108.931 57.0454 109.126 57.0538C109.319 57.0622 109.495 57.0495 109.651 57.0158C109.811 56.9778 109.938 56.9208 110.031 56.8448C110.123 56.7688 110.17 56.6696 110.17 56.5472C110.17 56.4122 110.113 56.315 109.999 56.256C109.889 56.1926 109.743 56.161 109.562 56.161H108.429V55.2429H109.461C109.629 55.2429 109.761 55.2091 109.854 55.1415C109.946 55.074 109.993 54.9833 109.993 54.8693C109.993 54.7596 109.952 54.673 109.873 54.6097C109.792 54.5421 109.685 54.4957 109.55 54.4704C109.414 54.4408 109.262 54.4303 109.094 54.4387C108.925 54.4471 108.749 54.4788 108.568 54.5337C108.387 54.5843 108.211 54.654 108.043 54.7426L107.676 53.8055C107.975 53.6578 108.29 53.5565 108.619 53.5016C108.948 53.4467 109.269 53.434 109.581 53.4636C109.894 53.4932 110.177 53.5628 110.43 53.6726C110.683 53.7781 110.883 53.9195 111.031 54.0968C111.183 54.2741 111.259 54.483 111.259 54.7236C111.259 54.9347 111.202 55.1226 111.088 55.2872C110.974 55.4518 110.82 55.5805 110.626 55.6734C110.432 55.7663 110.208 55.8127 109.955 55.8127L109.987 55.5468C110.278 55.5468 110.531 55.5974 110.747 55.6988C110.965 55.8001 111.135 55.9394 111.253 56.1167C111.375 56.2897 111.437 56.4902 111.437 56.7182C111.437 56.9335 111.38 57.1255 111.266 57.2944C111.155 57.459 111.002 57.5983 110.804 57.7123C110.605 57.8263 110.377 57.9107 110.12 57.9656C109.866 58.0246 109.594 58.0521 109.303 58.0479C109.012 58.0479 108.716 58.012 108.416 57.9402C108.121 57.8685 107.834 57.7629 107.555 57.6236ZM111.671 57.9656L113.628 53.5333H114.862L116.825 57.9656H115.521L113.988 54.1474H114.482L112.95 57.9656H111.671ZM112.741 57.1044L113.064 56.18H115.229L115.552 57.1044H112.741ZM117.333 57.9656V53.5333H118.568V56.9715H120.271V53.5333H121.506V57.9656H117.333ZM120.968 58.871V57.687L121.228 57.9656H120.271V56.9715H122.114V58.871H120.968ZM122.707 57.9656V53.5333H123.941V57.9656H122.707ZM124.858 57.9656V53.5333H126.111V57.9656H124.858ZM126.156 53.1787C126.016 53.1787 125.899 53.1343 125.801 53.0457C125.704 52.9528 125.655 52.8325 125.655 52.6848C125.655 52.5371 125.704 52.4168 125.801 52.3239C125.899 52.231 126.016 52.1846 126.156 52.1846C126.299 52.1846 126.42 52.231 126.516 52.3239C126.614 52.4168 126.662 52.5371 126.662 52.6848C126.662 52.8325 126.614 52.9528 126.516 53.0457C126.42 53.1343 126.299 53.1787 126.156 53.1787ZM124.813 53.1787C124.674 53.1787 124.556 53.1343 124.459 53.0457C124.362 52.9528 124.313 52.8325 124.313 52.6848C124.313 52.5371 124.362 52.4168 124.459 52.3239C124.556 52.231 124.674 52.1846 124.813 52.1846C124.957 52.1846 125.077 52.231 125.174 52.3239C125.272 52.4168 125.32 52.5371 125.32 52.6848C125.32 52.8325 125.272 52.9528 125.174 53.0457C125.077 53.1343 124.957 53.1787 124.813 53.1787ZM40.2177 61.2219H41.4714V65.6542H40.2177V61.2219ZM38.508 65.6542H37.2543V61.2219H38.508V65.6542ZM40.3063 63.9256H38.4194V62.8872H40.3063V63.9256ZM42.6769 64.6601C42.926 64.7319 43.1286 64.7551 43.2848 64.7298C43.4452 64.7002 43.5867 64.5947 43.709 64.4132L43.9243 64.0966L44.032 63.9763L45.4123 61.2219H46.6344L44.7981 64.6475C44.6166 64.9851 44.3992 65.2469 44.1459 65.4326C43.8969 65.6183 43.6225 65.7239 43.3228 65.7492C43.0231 65.7746 42.7086 65.7196 42.3793 65.5846L42.6769 64.6601ZM44.013 64.9831L41.9868 61.2219H43.3101L44.6968 64.0966L44.013 64.9831ZM47.0365 65.6542V61.2219H50.7407V62.1907H48.2712V62.9062H49.4173C49.9576 62.9062 50.3692 63.0202 50.652 63.2481C50.939 63.4761 51.0826 63.8053 51.0826 64.2359C51.0826 64.6791 50.9222 65.0274 50.6014 65.2807C50.2805 65.5297 49.831 65.6542 49.2527 65.6542H47.0365ZM48.2712 64.7551H49.1704C49.3772 64.7551 49.5355 64.7129 49.6453 64.6285C49.7592 64.5441 49.8162 64.4238 49.8162 64.2676C49.8162 63.9552 49.6009 63.799 49.1704 63.799H48.2712V64.7551ZM51.7298 65.6542V61.2219H52.9645V65.6542H51.7298ZM53.9126 65.6542V61.2219H58.0726V65.6542H56.8316V61.9374L57.1102 62.216H54.875L55.1473 61.9374V65.6542H53.9126ZM61.1161 64.6601C61.3651 64.7319 61.5677 64.7551 61.7239 64.7298C61.8843 64.7002 62.0257 64.5947 62.1481 64.4132L62.3634 64.0966L62.4711 63.9763L63.8514 61.2219H65.0735L63.2372 64.6475C63.0557 64.9851 62.8383 65.2469 62.585 65.4326C62.3359 65.6183 62.0616 65.7239 61.7619 65.7492C61.4621 65.7746 61.1477 65.7196 60.8185 65.5846L61.1161 64.6601ZM62.4521 64.9831L60.4259 61.2219H61.7492L63.1359 64.0966L62.4521 64.9831ZM68.2743 65.6542L67.0269 63.5457L68.0337 62.9505L69.6863 65.6542H68.2743ZM65.4503 65.6542V61.2219H66.6977V65.6542H65.4503ZM66.3368 63.9573V62.9442H67.9451V63.9573H66.3368ZM68.154 63.5711L66.9953 63.4444L68.3566 61.2219H69.6737L68.154 63.5711ZM70.0885 65.6542V61.2219H72.1147C72.5199 61.2219 72.8682 61.2873 73.1594 61.4182C73.4549 61.5491 73.6829 61.7391 73.8433 61.9881C74.0037 62.233 74.0839 62.5242 74.0839 62.8619C74.0839 63.1954 74.0037 63.4845 73.8433 63.7294C73.6829 63.9742 73.4549 64.1642 73.1594 64.2992C72.8682 64.4301 72.5199 64.4955 72.1147 64.4955H70.785L71.3422 63.951V65.6542H70.0885ZM71.3422 64.0839L70.785 63.5077H72.0387C72.3004 63.5077 72.4946 63.4508 72.6212 63.3368C72.7521 63.2228 72.8175 63.0645 72.8175 62.8619C72.8175 62.655 72.7521 62.4946 72.6212 62.3807C72.4946 62.2667 72.3004 62.2097 72.0387 62.2097H70.785L71.3422 61.6335V64.0839ZM73.986 65.6542L75.9426 61.2219H77.1773L79.1402 65.6542H77.8358L76.3035 61.8361H76.7974L75.2651 65.6542H73.986ZM75.0561 64.7931L75.379 63.8687H77.5445L77.8674 64.7931H75.0561ZM79.6164 65.6542V61.2219H80.8701V65.6542H79.6164ZM80.9144 60.8674C80.7751 60.8674 80.657 60.823 80.5598 60.7344C80.4628 60.6415 80.4142 60.5212 80.4142 60.3735C80.4142 60.2258 80.4628 60.1055 80.5598 60.0126C80.657 59.9197 80.7751 59.8733 80.9144 59.8733C81.058 59.8733 81.1783 59.9197 81.2753 60.0126C81.3725 60.1055 81.421 60.2258 81.421 60.3735C81.421 60.5212 81.3725 60.6415 81.2753 60.7344C81.1783 60.823 81.058 60.8674 80.9144 60.8674ZM79.5721 60.8674C79.4328 60.8674 79.3146 60.823 79.2175 60.7344C79.1204 60.6415 79.0719 60.5212 79.0719 60.3735C79.0719 60.2258 79.1204 60.1055 79.2175 60.0126C79.3146 59.9197 79.4328 59.8733 79.5721 59.8733C79.7156 59.8733 79.8359 59.9197 79.933 60.0126C80.0301 60.1055 80.0786 60.2258 80.0786 60.3735C80.0786 60.5212 80.0301 60.6415 79.933 60.7344C79.8359 60.823 79.7156 60.8674 79.5721 60.8674ZM84.7571 61.2219H86.0108V65.6542H84.7571V61.2219ZM83.0475 65.6542H81.7937V61.2219H83.0475V65.6542ZM84.8457 63.9256H82.9588V62.8872H84.8457V63.9256ZM86.9632 65.6542V61.2219H88.1979V63.8243L90.0278 61.2219H91.2055V65.6542H89.9708V63.0582L88.1472 65.6542H86.9632Z" fill="#340065"/>
</g>
</svg>
